<?xml version="1.0" encoding="utf-8"?>
<!-- Generator: Adobe Illustrator 21.0.2, SVG Export Plug-In . SVG Version: 6.00 Build 0)  -->
<svg version="1.1" id="Camada_1" xmlns="http://www.w3.org/2000/svg" xmlns:xlink="http://www.w3.org/1999/xlink" x="0px" y="0px"
	 viewBox="0 0 314 213.5" style="enable-background:new 0 0 314 213.5;" xml:space="preserve">
<style type="text/css">
	.st0{fill:#28245B;}
	.st1{opacity:0.43;}
	.st2{opacity:0.2;}
	.st3{fill:#FECB5B;}
	.st4{opacity:0.2;fill:#EBF2FA;enable-background:new    ;}
	.st5{clip-path:url(#SVGID_2_);}
	.st6{fill:#FFFFFF;stroke:#6B0B0C;stroke-width:2;stroke-linecap:round;stroke-linejoin:round;}
	.st7{fill:#6B0B0C;}
	.st8{fill:#FFFFFF;stroke:#6B0B0C;stroke-width:2;stroke-miterlimit:10;}
	.st9{opacity:0.2;fill:#6B0B0C;enable-background:new    ;}
	.st10{fill:#FFFFFF;}
	.st11{fill:none;stroke:#6B0B0C;stroke-width:2;stroke-linecap:round;stroke-linejoin:round;}
	.st12{fill:#F26956;stroke:#F26956;stroke-width:3;stroke-linecap:round;stroke-linejoin:round;}
	.st13{fill:#FFFFFF;stroke:#274694;stroke-width:2;stroke-linecap:round;stroke-linejoin:round;}
	.st14{fill:#2D7BF9;}
	.st15{fill:#274694;}
	.st16{fill:#FFFFFF;stroke:#CD2900;stroke-width:2;stroke-linecap:round;stroke-linejoin:round;}
	.st17{fill:#CD2900;}
	.st18{fill:none;stroke:#000000;stroke-width:2;stroke-linecap:round;stroke-linejoin:round;}
</style>
<title>Ativo 2 dv</title>
<g>
	<g id="Camada_2">
		<g id="Camada_2-2">
			<ellipse class="st0" cx="159.5" cy="151.1" rx="139.9" ry="33.4"/>
			<g>
				<g class="st1">
					<ellipse cx="159.5" cy="151.1" rx="139.9" ry="33.4"/>
				</g>
			</g>
			
				<image style="overflow:visible;enable-background:new    ;" width="148" height="115" xlink:href="9567C8E4D30B512A.png"  transform="matrix(1 0 0 1 85.76 82.5)">
			</image>
			<g class="st2">
				<path class="st3" d="M250.3,147.1l-2.1-5.7l-5.7-2.1l5.7-2.1l2.1-5.7l2.1,5.7l5.7,2.1l-5.7,2.1L250.3,147.1z M245.7,139.3
					l3.4,1.2l1.2,3.4l1.2-3.4l3.4-1.2l-3.4-1.2l-1.2-3.4l-1.2,3.4L245.7,139.3z"/>
				<path class="st3" d="M263.3,152.6l-1.4-3.8l-3.8-1.4l3.8-1.4l1.4-3.8l1.4,3.8l3.8,1.4l-3.8,1.4L263.3,152.6z M261.3,147.4
					l1.5,0.6l0.5,1.5l0.5-1.5l1.5-0.6l-1.5-0.6l-0.5-1.5l-0.5,1.5L261.3,147.4z"/>
				<path class="st3" d="M253.9,157.5l-1-2.7l-2.7-1l2.7-1l1-2.7l1,2.7l2.7,1l-2.7,1L253.9,157.5z M253.3,153.7l0.4,0.1l0.1,0.4
					l0.1-0.4l0.4-0.1l-0.4-0.1l-0.1-0.4l-0.1,0.4L253.3,153.7z"/>
			</g>
			<g class="st2">
				<path class="st3" d="M79.3,136.1l-2.1-5.7l-5.7-2.1l5.7-2.1l2.1-5.7l2.1,5.7l5.7,2.1l-5.7,2.1L79.3,136.1z M74.7,128.3l3.4,1.2
					l1.2,3.4l1.2-3.4l3.4-1.2l-3.4-1.2l-1.2-3.4l-1.2,3.4L74.7,128.3z"/>
				<path class="st3" d="M92.3,141.6l-1.4-3.8l-3.8-1.4l3.8-1.4l1.4-3.8l1.4,3.8l3.8,1.4l-3.8,1.4L92.3,141.6z M90.3,136.4l1.5,0.6
					l0.6,1.5l0.6-1.5l1.5-0.6l-1.5-0.6l-0.6-1.5l-0.6,1.5L90.3,136.4z"/>
				<path class="st3" d="M82.9,146.5l-1-2.7l-2.7-1l2.7-1l1-2.7l1,2.7l2.7,1l-2.7,1L82.9,146.5z M82.3,142.7l0.4,0.1l0.1,0.4
					l0.1-0.4l0.4-0.1l-0.4-0.1l-0.1-0.4l-0.1,0.4L82.3,142.7z"/>
			</g>
			<g class="st2">
				<path class="st3" d="M48.3,156.1l-2.1-5.7l-5.7-2.1l5.7-2.1l2.1-5.7l2.1,5.7l5.7,2.1l-5.7,2.1L48.3,156.1z M43.7,148.3l3.4,1.2
					l1.2,3.4l1.2-3.4l3.4-1.2l-3.4-1.2l-1.2-3.4l-1.2,3.4L43.7,148.3z"/>
				<path class="st3" d="M61.3,161.6l-1.4-3.8l-3.8-1.4l3.8-1.4l1.4-3.8l1.4,3.8l3.8,1.4l-3.8,1.4L61.3,161.6z M59.3,156.4l1.5,0.6
					l0.5,1.5l0.5-1.5l1.5-0.6l-1.5-0.6l-0.5-1.5l-0.5,1.5L59.3,156.4z"/>
				<path class="st3" d="M51.9,166.5l-1-2.7l-2.7-1l2.7-1l1-2.7l1,2.7l2.7,1l-2.7,1L51.9,166.5z M51.3,162.7l0.4,0.1l0.1,0.4
					l0.1-0.4l0.4-0.1l-0.4-0.1l-0.1-0.4l-0.1,0.4L51.3,162.7z"/>
			</g>
			<g class="st2">
				<path class="st3" d="M138.3,175.1l-2.1-5.7l-5.7-2.1l5.7-2.1l2.1-5.7l2.1,5.7l5.7,2.1l-5.7,2.1L138.3,175.1z M133.7,167.3
					l3.4,1.2l1.2,3.4l1.2-3.4l3.4-1.2l-3.4-1.2l-1.2-3.4l-1.2,3.4L133.7,167.3z"/>
				<path class="st3" d="M151.3,180.6l-1.4-3.8l-3.8-1.4l3.8-1.4l1.4-3.8l1.4,3.8l3.8,1.4l-3.8,1.4L151.3,180.6z M149.3,175.4
					l1.5,0.6l0.6,1.5l0.6-1.5l1.5-0.6l-1.5-0.6l-0.6-1.5l-0.6,1.5L149.3,175.4z"/>
				<path class="st3" d="M141.9,185.5l-1-2.7l-2.7-1l2.7-1l1-2.7l1,2.7l2.7,1l-2.7,1L141.9,185.5z M141.3,181.7l0.4,0.1l0.1,0.4
					l0.1-0.4l0.4-0.1l-0.4-0.1l-0.1-0.4l-0.1,0.4L141.3,181.7z"/>
			</g>
			<circle class="st4" cx="68.1" cy="163.3" r="2.2"/>
			<path class="st4" d="M111.6,169H95.6c-1.2-1-1.3-2.8-0.3-3.9c0,0,0,0,0,0h6.7c1.1-0.2,1.8-1.3,1.6-2.3c-0.2-0.8-0.8-1.4-1.6-1.6
				H74.5c-1.1-0.2-2.1,0.5-2.3,1.6s0.5,2.1,1.6,2.3c0.2,0,0.5,0,0.7,0h12.9c1,1.1,1.1,2.8,0.1,3.9h-3.4c-1.1,0.2-1.8,1.3-1.6,2.3
				c0.2,0.8,0.8,1.4,1.6,1.6h27.5c1.1-0.2,1.8-1.3,1.6-2.3C113,169.8,112.4,169.2,111.6,169L111.6,169z"/>
			<circle class="st4" cx="113.1" cy="125.3" r="2.2"/>
			<path class="st4" d="M156.6,131h-15.9c-1.2-1-1.3-2.8-0.3-3.9c0,0,0,0,0,0h6.7c1.1,0.2,2.1-0.5,2.3-1.6s-0.5-2.1-1.6-2.3
				c-0.2,0-0.5,0-0.7,0h-27.5c-1.1,0.2-1.8,1.3-1.6,2.3c0.2,0.8,0.8,1.4,1.6,1.6h12.9c1,1.1,1.1,2.8,0.1,3.9h-3.4
				c-1.1-0.2-2.1,0.5-2.3,1.6s0.5,2.1,1.6,2.3c0.2,0,0.5,0,0.7,0h27.5c1.1-0.2,1.8-1.3,1.6-2.3C158,131.8,157.4,131.2,156.6,131
				L156.6,131z"/>
			<circle class="st4" cx="191.1" cy="131.3" r="2.2"/>
			<path class="st4" d="M234.6,137h-15.9c-1.2-1-1.3-2.8-0.3-3.9c0,0,0,0,0,0h6.7c1.1-0.2,1.8-1.3,1.6-2.3c-0.2-0.8-0.8-1.4-1.6-1.6
				h-27.5c-1.1,0.2-1.8,1.3-1.6,2.3c0.2,0.8,0.8,1.4,1.6,1.6h12.9c1,1.1,1.1,2.8,0.1,3.9h-3.4c-1.1-0.2-2.1,0.5-2.3,1.6
				s0.5,2.1,1.6,2.3c0.2,0,0.5,0,0.7,0h27.5c1.1-0.2,1.8-1.3,1.6-2.3C236,137.8,235.4,137.2,234.6,137L234.6,137z"/>
			<circle class="st4" cx="188.1" cy="169.3" r="2.2"/>
			<path class="st4" d="M231.6,175h-15.9c-1.2-1-1.3-2.8-0.3-3.9c0,0,0,0,0,0h6.7c1.1-0.2,1.8-1.3,1.6-2.3c-0.2-0.8-0.8-1.4-1.6-1.6
				h-27.5c-1.1,0.2-1.8,1.3-1.6,2.3c0.2,0.8,0.8,1.4,1.6,1.6h12.9c1,1.1,1.1,2.8,0.1,3.9h-3.4c-1.1-0.2-2.1,0.5-2.3,1.6
				s0.5,2.1,1.6,2.3c0.2,0,0.5,0,0.7,0h27.5c1.1-0.2,1.8-1.3,1.6-2.3C233,175.8,232.4,175.2,231.6,175L231.6,175z"/>
			<g>
				<defs>
					<ellipse id="SVGID_1_" cx="159.5" cy="150.1" rx="139.9" ry="33.4"/>
				</defs>
				<clipPath id="SVGID_2_">
					<use xlink:href="#SVGID_1_"  style="overflow:visible;"/>
				</clipPath>
				<g class="st5">
					<ellipse class="st6" cx="158.5" cy="180.5" rx="41" ry="8"/>
				</g>
			</g>
			<path class="st7" d="M111.3,150.5h87.2c6.1,0,11,4.9,11,11v3.9c0,6.1-4.9,11-11,11h-87.2c-6.1,0-11-4.9-11-11v-3.9
				C100.3,155.4,105.2,150.5,111.3,150.5z"/>
			<path class="st8" d="M172.5,80.5c0,0,47.4-43,75-27.6c0,0,3.3,21-46.3,47.4"/>
			<path class="st9" d="M188.5,83.1L246.4,54c1.1,7.7-9.9,29.8-45.2,45.2C201.2,99.2,193.9,85.6,188.5,83.1z"/>
			<path class="st8" d="M140.6,80.5c0,0-47.4-43-75-27.6c0,0-3.3,21,46.3,47.4"/>
			<path class="st9" d="M124.6,83.1L66.7,54c-1.1,7.7,9.9,29.8,45.2,45.2C111.9,99.2,119.3,85.6,124.6,83.1z"/>
			<path class="st6" d="M206.7,126.8c0.7-7.6-0.2-15.4-2.8-22.6c-1.5-3.8-3.3-7.5-5.5-11c-2.5-4-3.7-6.1-5.5-7.7
				c-5.2-4.8-12.1-5.1-22.1-5.5c-4.5-0.2-9.1-0.1-13.6,0.4c-4.5-0.5-9-0.6-13.6-0.4c-9.9,0.4-16.9,0.7-22.1,5.5
				c-1.8,1.7-3,3.7-5.5,7.7c-2.2,3.5-4,7.2-5.5,11c-2.6,7.2-3.5,15-2.8,22.6c-0.8,0.7-11.5,11.1-8.8,25.4
				c1.9,10.1,9.3,15.7,12.1,17.6c6.2,3.9,13.7,5.5,21,4.4c11.4-1.9,20.9-10.7,25.1-22.6c4.2,11.9,13.8,20.7,25.1,22.6
				c7.3,1.1,14.8-0.5,21-4.4c2.9-1.9,10.2-7.6,12.1-17.6C218.2,137.9,207.5,127.5,206.7,126.8z"/>
			<path class="st7" d="M142.8,132.3c-0.3-5.2-4.7-9.1-9.9-8.8c-4.8,0.3-8.6,4.1-8.8,8.8H142.8z"/>
			<path class="st7" d="M190.2,132.3c-0.3-5.2-4.7-9.1-9.9-8.8c-4.8,0.3-8.6,4.1-8.8,8.8H190.2z"/>
			
				<image style="overflow:visible;opacity:9.000000e-02;enable-background:new    ;" width="59" height="57" xlink:href="9567C8E4D30B512E.png"  transform="matrix(1 0 0 1 70.76 156.5)">
			</image>
			<path class="st10" d="M93,159.9h14.6c6.6,0,12,5.4,12,12v12.4c0,6.6-5.4,12-12,12H93c-6.6,0-12-5.4-12-12v-12.4
				C81,165.2,86.4,159.9,93,159.9z"/>
			<path class="st11" d="M93,159.9h14.6c6.6,0,12,5.4,12,12v12.4c0,6.6-5.4,12-12,12H93c-6.6,0-12-5.4-12-12v-12.4
				C81,165.2,86.4,159.9,93,159.9z"/>
			
				<image style="overflow:visible;opacity:9.000000e-02;enable-background:new    ;" width="60" height="57" xlink:href="9567C8E4D30B5129.png"  transform="matrix(1 0 0 1 183.76 156.5)">
			</image>
			<path class="st10" d="M206.6,159.9h14.6c6.6,0,12,5.4,12,12v12.4c0,6.6-5.4,12-12,12h-14.6c-6.6,0-12-5.4-12-12v-12.4
				C194.6,165.2,200,159.9,206.6,159.9z"/>
			<path class="st11" d="M206.6,159.9h14.6c6.6,0,12,5.4,12,12v12.4c0,6.6-5.4,12-12,12h-14.6c-6.6,0-12-5.4-12-12v-12.4
				C194.6,165.2,200,159.9,206.6,159.9z"/>
			<polygon class="st12" points="157.1,147.7 167.9,138.9 146.3,138.9 			"/>
		</g>
		<g id="Camada_3">
			<path class="st13" d="M13.1,62.5h32c6.6,0,12,5.4,12,12v32c0,6.6-5.4,12-12,12h-32c-6.6,0-12-5.4-12-12v-32
				C1.1,67.9,6.5,62.5,13.1,62.5z"/>
			<path class="st14" d="M41.9,82.6c-6,0-8.8,3.2-10.1,5.8c-0.7,1.5-1.2,3-1.3,4.6c-0.3-1.2-0.8-2.2-1.6-3.1
				c-0.4-0.4-0.9-0.8-1.5-1.1c1.7-1.2,2.6-3.1,2.4-5.1c0.1-2.3-0.8-4.6-2.6-6.2c-1.7-1.4-3.9-2.1-6.1-2H6.5c-0.4,0-0.8,0.3-0.8,0.8
				v28c0,0.4,0.3,0.8,0.8,0.8h14.7c1.8,0,3.5-0.4,5.1-1.2c2.5-1.2,4.1-3.7,4.4-6.4c0.4,1.9,1.3,3.6,2.5,5c2,2.2,4.9,3.2,8.7,3.2h0.4
				c1.9,0,3.8-0.4,5.6-1.2c2.8-1.1,4.5-3.9,4.4-6.8c0-0.4-0.3-0.8-0.8-0.8h-4.9c-0.4,0-0.7,0.3-0.8,0.7c0,0,0,0,0,0.1
				c0,0.4-0.2,0.8-0.6,1.1c-0.9,0.7-2,1.1-3.2,1h-0.2c-0.8,0-1.6-0.2-2.3-0.6c-1-0.6-1.6-1.6-1.6-2.8h13.7c0.4,0,0.7-0.3,0.8-0.7
				c0-0.2,0.8-6.1-2.6-9.9C47.9,83.6,45.3,82.6,41.9,82.6z M38,91c0.5-1.7,2.2-2.9,4-2.8c0.9-0.1,1.8,0.3,2.5,0.9
				c0.5,0.5,0.8,1.2,0.9,1.9H38z M13.7,92.5h7.4c0.2,0,2.2,0.1,2.2,3.1c0,2-0.8,2.8-2.6,2.9h-7L13.7,92.5z M20.6,86.7h-6.9v-4.7h7.4
				c0.2,0,1.2,0.2,1.2,2.2C22.3,86.7,21.4,86.7,20.6,86.7z"/>
			<path class="st14" d="M35.8,79.8h11.5c0.4,0,0.7-0.3,0.8-0.7v-3c0-0.4-0.4-0.7-0.8-0.7H35.8c-0.4,0-0.7,0.3-0.8,0.7v3
				C35.1,79.5,35.5,79.8,35.8,79.8z"/>
			<path class="st15" d="M42.3,106.5h-0.4c-4,0-7.1-1.2-9.3-3.6c-0.7-0.7-1.3-1.6-1.7-2.4c-0.8,1.8-2.2,3.2-4,4.1
				c-1.7,0.8-3.6,1.3-5.5,1.3H6.5c-0.9,0-1.7-0.8-1.7-1.7l0,0v-28c0-0.9,0.8-1.7,1.7-1.7c0,0,0,0,0,0h14.6c2.5-0.1,4.8,0.7,6.8,2.3
				c1.9,1.8,3,4.3,2.9,6.9c0.1,1.8-0.6,3.6-1.8,5c0.2,0.2,0.4,0.3,0.6,0.5c0.2,0.2,0.4,0.5,0.6,0.7c0.2-0.7,0.5-1.4,0.8-2
				c1.4-2.9,4.5-6.3,11-6.3c3.7,0,6.6,1.2,8.6,3.5c3.6,4.1,2.9,10.4,2.8,10.6c0,0.3-0.2,0.7-0.4,0.9c0.2,0.3,0.3,0.6,0.3,0.9
				c0.1,3.3-1.8,6.4-4.9,7.7C46.4,106.1,44.3,106.5,42.3,106.5z M30.7,96.4c0.4,0,0.8,0.3,0.9,0.8c0.3,1.7,1.1,3.2,2.3,4.5
				c1.8,1.9,4.5,2.9,7.9,2.9h0.4c1.8,0,3.5-0.4,5.2-1.1c2.3-0.9,3.8-3.2,3.8-5.8h-4.5c-0.1,0.6-0.4,1.1-0.8,1.6
				c-1.1,0.9-2.5,1.4-3.9,1.2h-0.2c-1,0-2-0.3-2.8-0.7c-1.2-0.8-2-2.1-2.1-3.5c0-0.6,0.4-1,0.9-1.1c0,0,0.1,0,0.1,0h13.5
				c0.1-1,0.4-5.8-2.4-8.9c-1.6-1.9-4-2.8-7.2-2.8c-5.5,0-8,2.9-9.2,5.3c-0.7,1.3-1.1,2.8-1.2,4.3c-0.1,0.5-0.7,0.9-1.2,0.7
				c-0.3-0.1-0.6-0.3-0.7-0.6c-0.2-1-0.7-1.9-1.4-2.7c-0.3-0.4-0.7-0.7-1.2-0.9c-0.5-0.3-0.6-0.9-0.4-1.4c0.1-0.1,0.2-0.2,0.3-0.3
				c1.4-1,2.1-2.6,2-4.3c0.1-2.1-0.7-4-2.2-5.4c-1.6-1.2-3.5-1.9-5.5-1.8H6.8V104h14.5c1.6,0,3.2-0.4,4.7-1.1
				c2.2-1.1,3.7-3.2,3.9-5.7C29.8,96.8,30.2,96.4,30.7,96.4L30.7,96.4z M39.1,97.2c0.2,0.4,0.5,0.8,0.9,1c0.6,0.3,1.2,0.5,1.8,0.5
				H42c0.9,0.1,1.8-0.2,2.5-0.7c0.1-0.1,0.2-0.3,0.3-0.4c0-0.1,0-0.2,0-0.3L39.1,97.2z M20.7,99.4h-7c-0.6,0-1-0.4-1-1v-6
				c0-0.6,0.4-1,1-1h7.4c1.2,0,3.2,0.9,3.2,4.1S22.3,99.3,20.7,99.4L20.7,99.4z M14.7,97.5h6c1.1,0,1.7-0.3,1.7-1.9
				c0-2-1-2.1-1.2-2.1h-6.4L14.7,97.5L14.7,97.5z M45.4,92H38c-0.6,0-1-0.5-1-1c0-0.1,0-0.2,0-0.3c0.7-2.1,2.7-3.5,4.9-3.4
				c1.2-0.1,2.3,0.4,3.1,1.1c0.6,0.7,1.1,1.5,1.2,2.4c0.1,0.5-0.3,1.1-0.8,1.2C45.5,92,45.4,92,45.4,92z M39.7,90H44
				c-0.1-0.1-0.1-0.2-0.2-0.3c-0.5-0.4-1.1-0.6-1.8-0.6C41.1,89.1,40.3,89.4,39.7,90z M20.6,87.6h-6.9c-0.6,0-1-0.4-1-1v-4.7
				c0-0.6,0.4-1,1-1h7.4c0.2,0,2.2,0.2,2.2,3.1c0.1,1.1-0.2,2.2-0.9,3C21.9,87.5,21.3,87.7,20.6,87.6z M14.7,85.7h5.9
				c0.2,0,0.3,0,0.5,0c0,0,0.3-0.3,0.3-1.6c0-0.8-0.2-1.2-0.3-1.2h-6.4V85.7L14.7,85.7z"/>
			<path class="st15" d="M47.4,80.7H35.8c-0.9,0-1.7-0.7-1.7-1.6c0,0,0,0,0,0v-3c0-0.9,0.8-1.6,1.7-1.6c0,0,0,0,0,0h11.6
				c0.9,0,1.7,0.7,1.7,1.6c0,0,0,0,0,0v3C49.1,80,48.3,80.8,47.4,80.7z M36.1,78.8h11.1v-2.3H36.1V78.8z"/>
			<path class="st15" d="M8.7,102.9c-0.6,0-1-0.4-1-1v-4.8c-0.1-0.5,0.2-1.1,0.7-1.2s1.1,0.2,1.2,0.7c0,0.2,0,0.3,0,0.5v4.8
				C9.6,102.4,9.2,102.9,8.7,102.9z"/>
			<path class="st15" d="M8.7,95.1c-0.6,0-1-0.4-1-1v-0.5c-0.1-0.5,0.2-1.1,0.7-1.2s1.1,0.2,1.2,0.7c0,0.2,0,0.3,0,0.5v0.5
				C9.6,94.6,9.2,95,8.7,95.1z"/>
			<path class="st10" d="M279,81l16.2,8.5c0.3,0.2,0.4,0.5,0.3,0.8c-0.1,0.1-0.2,0.2-0.3,0.3L279,99.2c-0.3,0.2-0.7,0-0.8-0.3
				c0-0.1-0.1-0.2-0.1-0.3v-17c0-0.3,0.2-0.6,0.6-0.7C278.8,80.9,278.9,80.9,279,81z"/>
			<path class="st16" d="M269.1,62.5h32c6.6,0,12,5.4,12,12v32c0,6.6-5.4,12-12,12h-32c-6.6,0-12-5.4-12-12v-32
				C257.1,67.9,262.5,62.5,269.1,62.5z"/>
			<path class="st17" d="M284.9,106.2c-6,0-12-0.3-17.9-1c-1.1-0.1-2-1-2.2-2.1c-1.3-8.6-1.3-17.4,0-26c0.2-1.1,1.1-2,2.2-2.1
				c11.9-1.3,23.9-1.3,35.8,0c1.1,0.1,2,1,2.2,2.1c1.3,8.6,1.3,17.4,0,26c-0.2,1.1-1.1,2-2.2,2.1
				C296.8,105.9,290.8,106.2,284.9,106.2z"/>
			<path d="M305.8,77c-0.2-1.5-1.4-2.7-3-2.8c-12-1.4-24-1.4-36,0c-1.5,0.2-2.7,1.3-3,2.8c-1.3,8.7-1.3,17.5,0,26.2
				c0.2,1.5,1.4,2.7,3,2.8c6,0.7,12,1,18,1c2.6,0,5.1-0.1,7.7-0.2c0.5,0,0.9-0.4,0.9-0.9l0,0c0-0.5-0.4-0.9-0.9-0.9c0,0,0,0-0.1,0
				c-8.5,0.4-17,0.1-25.4-0.8c-0.7-0.1-1.2-0.6-1.3-1.3c-1.2-8.5-1.2-17.2,0-25.7c0.1-0.7,0.7-1.2,1.4-1.2c11.8-1.3,23.8-1.3,35.6,0
				c0.7,0.1,1.2,0.6,1.3,1.3c1.2,8.5,1.2,17.2,0,25.7c-0.1,0.7-0.7,1.2-1.3,1.3l0,0c-1.9,0.2-3.8,0.4-5.7,0.5
				c-0.5,0-0.9,0.4-0.9,0.9l0,0c0,0.5,0.4,0.9,0.9,0.9c0,0,0,0,0.1,0c1.9-0.1,3.9-0.3,5.8-0.6c1.5-0.2,2.7-1.3,3-2.8
				C307.1,94.5,307.1,85.7,305.8,77z"/>
			<path d="M295.1,89.3c0.3,0.2,0.5,0.5,0.5,0.8c0,0.3-0.2,0.7-0.5,0.8l-16,8.4c-0.3,0.2-0.6,0.2-0.9,0c-0.3-0.2-0.5-0.5-0.5-0.8
				V81.6c0-0.3,0.2-0.6,0.5-0.8c0.3-0.1,0.6-0.1,0.9,0L295.1,89.3z M279.6,97l13.1-6.9l-13.1-6.9V97z"/>
			<polygon class="st10" points="292.7,90.1 279.6,97 279.6,83.2 			"/>
		</g>
	</g>
</g>
<g id="Camada_2_1_">
	<g id="Camada_3_1_">
		<g>
			<g>
				<path d="M215,15.7c0,2.7,0,5.2,0,7.8c0,0.7-0.1,1.5-0.2,2.2c-0.6,2.5-3,4-5.5,3.7c-2.6-0.3-4.5-2.4-4.6-5c-0.1-2.5,0-5,0-7.5
					c0-0.3,0-0.6,0-1c-1.1,0-2.1,0-3.2,0c0,0.3-0.1,0.5-0.1,0.7c0,2.6,0,5.3,0,7.9c0.1,6.5,7.2,10.4,12.8,7c0.2-0.1,0.4-0.2,0.6-0.3
					c0.1,2.5-1.8,4.7-4.2,5c-0.8,0.1-1.6,0.1-2.4,0.2c0,1.1,0,2.1,0,3.2c0.6,0,1.1,0,1.6,0c3.7-0.1,8.4-2.9,8.5-6.6l0-1
					c0-5.4,0-10.8,0-16.2C217.2,15.7,216.2,15.7,215,15.7z"/>
				<path d="M106.2,32.7c1.7,0,3.3,0,5-0.1c4.2-0.4,7.5-3.9,7.6-8.1c0.1-4.4-3-8.1-7.2-8.6c-3.6-0.4-9.2,1.5-9.7,6.3l0,17.3
					c1.1,0,2.2,0,3.3,0l0-6.8 M110.7,29.4l-5.5,0l0-5.9c0.3-2.7,2.8-4.6,5.6-4.4c2.6,0.2,4.7,2.5,4.7,5.2
					C115.5,27.1,113.4,29.3,110.7,29.4z"/>
				<path d="M173.7,16.1c-1.9-0.3-3.8-0.2-5.7-0.3c-0.4,0-0.8,0-1.3-0.1c0-2.3,0-4.6,0-6.8c-1.1,0-2.2,0-3.3,0c0,5.1,0,10.2,0,15.4
					c0.1,5,4.3,8.7,9.2,8.3c4.2-0.4,7.3-3.7,7.6-7.9C180.5,20.6,177.7,16.9,173.7,16.1z M177,24.5c-0.2,2.8-2.3,4.8-5,4.9
					c-2.8,0.1-5-1.8-5.3-4.7l0-5.5l6,0C175.4,19.6,177.2,22,177,24.5z"/>
				<path d="M151.6,15.9c-4,0.6-7,3.9-7.1,8.1c-0.1,4,2.8,7.7,6.7,8.3l10.1,0l0-8.7C160.9,18.6,156.6,15.2,151.6,15.9z M151.8,29.1
					c-2.7-0.4-4.4-3-4-5.8c0.3-2.5,2.7-4.5,5.2-4.4c2.8,0.1,4.9,2.2,5,4.9l0,5.3L151.8,29.1z"/>
				<path d="M189.5,15.9c-4,0.6-7,3.9-7.1,8.1c-0.1,4,2.8,7.7,6.7,8.3l10.1,0l0-8.7C198.9,18.6,194.6,15.2,189.5,15.9z M189.7,29.1
					c-2.7-0.4-4.4-3-4-5.8c0.3-2.5,2.7-4.5,5.2-4.4c2.8,0.1,4.9,2.2,5,4.9l0,5.3L189.7,29.1z"/>
				<path d="M143.1,31.4l-6-7.4l6.4-8.1l-4.2,0l-3.9,5.2l-3.8-5.1l-4,0c0.3,0.5,0.5,0.7,0.7,1l5.2,7.2l-5.7,7.5
					c-0.2,0.3-0.4,0.6-0.7,1l4.3,0l3.9-5.5c0.3,0.3,0.5,0.6,0.7,0.8l3.6,4.7l4.6,0C143.6,32.1,143.3,31.8,143.1,31.4z"/>
				<path d="M121.1,15.8c1,0,2,0,3.1,0c0,5.6,0,11.1,0,16.7c-1,0-2,0-3.1,0C121.1,27,121.1,21.4,121.1,15.8z"/>
			</g>
		</g>
		<path class="st18" d="M221.1,44.6h-122c-3.9,0-7.1-3.2-7.1-7.1V11c0-3.9,3.2-7.1,7.1-7.1h122c3.9,0,7.1,3.2,7.1,7.1v26.5
			C228.2,41.4,225,44.6,221.1,44.6z"/>
	</g>
</g>
</svg>
