<svg xmlns="http://www.w3.org/2000/svg" viewBox="0 0 283.83 83.5"><defs><style>.cls-1{fill:#fff;stroke-width:2px;}.cls-1,.cls-4,.cls-5{stroke:#274694;stroke-linecap:round;stroke-linejoin:round;}.cls-2{fill:#2d7bf9;}.cls-3{fill:#274694;}.cls-4,.cls-5{fill:none;stroke-width:5px;}.cls-5{stroke-dasharray:1.99 11.91 0 0 0 0;}</style></defs><title>Ativo 13column</title><g id="Camada_2" data-name="Camada 2"><g id="Camada_3" data-name="Camada 3"><rect class="cls-1" x="113.9" y="1" width="56.02" height="56.02" rx="12" ry="12"/><path class="cls-2" d="M154.66,21.09c-5.95,0-8.77,3.15-10.09,5.79a14.17,14.17,0,0,0-1.34,4.61,7,7,0,0,0-1.61-3.11,5,5,0,0,0-1.47-1.08,5.74,5.74,0,0,0,2.43-5.13A7.87,7.87,0,0,0,140,16a9.16,9.16,0,0,0-6.11-2H119.34a.75.75,0,0,0-.75.75v28a.75.75,0,0,0,.75.75H134a11.84,11.84,0,0,0,5.1-1.21,7.91,7.91,0,0,0,4.37-6.4,10.67,10.67,0,0,0,2.53,5c2,2.15,4.91,3.23,8.65,3.24h.4a13.76,13.76,0,0,0,5.59-1.16A7,7,0,0,0,165,36.06a.75.75,0,0,0-.75-.75h-4.93a.74.74,0,0,0-.75.78,1.59,1.59,0,0,1-.56,1.07,4.41,4.41,0,0,1-3.18,1h-.17a4.82,4.82,0,0,1-2.32-.6,3.49,3.49,0,0,1-1.64-2.77h13.72a.75.75,0,0,0,.75-.66c0-.25.75-6.06-2.59-9.87C160.74,22.14,158.08,21.09,154.66,21.09Zm-3.84,8.42a4,4,0,0,1,4-2.81,3.37,3.37,0,0,1,2.49.89,3.75,3.75,0,0,1,.94,1.92ZM126.51,31h7.4c.23,0,2.2.1,2.2,3.09,0,2-.81,2.85-2.62,2.89h-7Zm6.89-5.82h-6.89V20.44h7.38c.21,0,1.24.15,1.24,2.16C135.13,25.19,134.21,25.19,133.4,25.19Z"/><path class="cls-2" d="M148.64,18.27h11.55a.71.71,0,0,0,.75-.65v-3a.71.71,0,0,0-.75-.65H148.64a.71.71,0,0,0-.75.65v3A.71.71,0,0,0,148.64,18.27Z"/><path class="cls-3" d="M155,45h-.43c-4,0-7.14-1.2-9.33-3.55A10.69,10.69,0,0,1,143.58,39a8.79,8.79,0,0,1-4,4.1A12.86,12.86,0,0,1,134,44.43H119.34a1.72,1.72,0,0,1-1.72-1.72v-28A1.72,1.72,0,0,1,119.34,13h14.57a10.11,10.11,0,0,1,6.75,2.27,8.81,8.81,0,0,1,2.89,6.9,7,7,0,0,1-1.78,5,6.15,6.15,0,0,1,.56.52,6.53,6.53,0,0,1,.58.71,14,14,0,0,1,.8-2c1.44-2.89,4.51-6.33,11-6.33,3.71,0,6.61,1.16,8.63,3.46,3.63,4.13,2.86,10.37,2.83,10.63a1.71,1.71,0,0,1-.42.92,1.71,1.71,0,0,1,.27.92,8,8,0,0,1-4.91,7.71A14.76,14.76,0,0,1,155,45ZM143.47,34.89a1,1,0,0,1,.94.75,9.61,9.61,0,0,0,2.29,4.51c1.81,1.94,4.48,2.93,7.94,2.93h.4A12.76,12.76,0,0,0,160.22,42a6.08,6.08,0,0,0,3.8-5.75h-4.5a2.71,2.71,0,0,1-.82,1.56,5.3,5.3,0,0,1-3.87,1.25h-.18a5.73,5.73,0,0,1-2.82-.74,4.47,4.47,0,0,1-2.11-3.49,1,1,0,0,1,1-1.08h13.52c.1-1,.39-5.76-2.38-8.92-1.63-1.86-4-2.8-7.17-2.8-5.45,0-8,2.86-9.22,5.26a13.14,13.14,0,0,0-1.25,4.29,1,1,0,0,1-1.9.13A6,6,0,0,0,140.92,29a4.07,4.07,0,0,0-1.19-.87,1,1,0,0,1-.12-1.67,4.85,4.85,0,0,0,2-4.32,6.93,6.93,0,0,0-2.23-5.44,8.22,8.22,0,0,0-5.48-1.8H119.56V42.5H134a10.82,10.82,0,0,0,4.66-1.1,6.92,6.92,0,0,0,3.85-5.66,1,1,0,0,1,.91-.85Zm8.47.82a2.21,2.21,0,0,0,.88,1,3.88,3.88,0,0,0,1.83.47h.17a3.66,3.66,0,0,0,2.49-.67,1.07,1.07,0,0,0,.28-.42,1.71,1.71,0,0,1,0-.35ZM133.49,38h-7a1,1,0,0,1-1-1V31a1,1,0,0,1,1-1h7.4c1.18,0,3.17.87,3.17,4.06s-1.94,3.82-3.56,3.85Zm-6-1.94h6c1.13,0,1.66-.32,1.66-1.92,0-2-.95-2.12-1.24-2.12h-6.42v4Zm30.73-5.55h-7.38a1,1,0,0,1-.91-1.3,5,5,0,0,1,4.86-3.44,4.29,4.29,0,0,1,3.17,1.17,4.72,4.72,0,0,1,1.21,2.42,1,1,0,0,1-.95,1.15Zm-5.69-1.94h4.29a2,2,0,0,0-.22-.27,2.45,2.45,0,0,0-1.8-.6A3,3,0,0,0,152.51,28.54ZM133.4,26.15h-6.89a1,1,0,0,1-1-1V20.44a1,1,0,0,1,1-1h7.42c.22,0,2.17.18,2.17,3.13a4,4,0,0,1-.86,3A2.44,2.44,0,0,1,133.4,26.15Zm-5.92-1.94h5.92a1.36,1.36,0,0,0,.5,0s.27-.3.27-1.57c0-.83-.21-1.16-.33-1.19h-6.36v2.81Z"/><path class="cls-3" d="M160.19,19.24H148.64a1.67,1.67,0,0,1-1.72-1.62v-3A1.67,1.67,0,0,1,148.64,13h11.55a1.67,1.67,0,0,1,1.72,1.62v3A1.67,1.67,0,0,1,160.19,19.24ZM148.86,17.3H160V15H148.86Z"/><path class="cls-3" d="M121.49,41.4a1,1,0,0,1-1-1V35.59a1,1,0,1,1,1.94,0v4.84A1,1,0,0,1,121.49,41.4Z"/><path class="cls-3" d="M121.49,33.56a1,1,0,0,1-1-1v-.48a1,1,0,1,1,1.94,0v.48A1,1,0,0,1,121.49,33.56Z"/><line class="cls-4" x1="2.5" y1="81" x2="3.5" y2="81"/><line class="cls-5" x1="15.41" y1="81" x2="279.5" y2="81"/><line class="cls-4" x1="279.5" y1="81" x2="280.5" y2="81"/><line class="cls-4" x1="13.33" y1="81" x2="182.33" y2="81"/><line class="cls-4" x1="223.33" y1="81" x2="281.33" y2="81"/></g></g></svg>