<?xml version="1.0" encoding="utf-8"?>
<!-- Generator: Adobe Illustrator 21.0.2, SVG Export Plug-In . SVG Version: 6.00 Build 0)  -->
<svg version="1.1" id="Camada_1" xmlns="http://www.w3.org/2000/svg" xmlns:xlink="http://www.w3.org/1999/xlink" x="0px" y="0px"
	 viewBox="0 0 283.8 83" style="enable-background:new 0 0 283.8 83;" xml:space="preserve">
<style type="text/css">
	.st0{fill:none;stroke:#000000;stroke-width:5;stroke-linecap:round;stroke-linejoin:round;}
	.st1{fill:none;stroke:#000000;stroke-width:5;stroke-linecap:round;stroke-linejoin:round;stroke-dasharray:1.99,11.91,0,0,0,0;}
	.st2{fill:none;stroke:#000000;stroke-width:2;stroke-linecap:round;stroke-linejoin:round;}
</style>
<title>Ativo 15column</title>
<g id="Camada_2">
	<g id="Camada_3">
		<g>
			<g>
				<path d="M196.6,25c0,2.7,0,5.2,0,7.8c0,0.7-0.1,1.5-0.2,2.2c-0.6,2.5-3,4-5.5,3.7c-2.6-0.3-4.5-2.4-4.6-5c-0.1-2.5,0-5,0-7.5
					c0-0.3,0-0.6,0-1c-1.1,0-2.1,0-3.2,0c0,0.3-0.1,0.5-0.1,0.7c0,2.6,0,5.3,0,7.9c0.1,6.5,7.2,10.4,12.8,7c0.2-0.1,0.4-0.2,0.6-0.3
					c0.1,2.5-1.8,4.7-4.2,5c-0.8,0.1-1.6,0.1-2.4,0.2c0,1.1,0,2.1,0,3.2c0.6,0,1.1,0,1.6,0c3.7-0.1,8.4-2.9,8.5-6.6l0-1
					c0-5.4,0-10.8,0-16.2C198.8,25,197.7,25,196.6,25z"/>
				<path d="M87.7,42c1.7,0,3.3,0,5-0.1c4.2-0.4,7.5-3.9,7.6-8.1c0.1-4.4-3-8.1-7.2-8.6c-3.6-0.4-9.2,1.5-9.7,6.3l0,17.3
					c1.1,0,2.2,0,3.3,0l0-6.8 M92.3,38.7l-5.5,0l0-5.9c0.3-2.7,2.8-4.6,5.6-4.4c2.6,0.2,4.7,2.5,4.7,5.2C97,36.4,95,38.6,92.3,38.7z
					"/>
				<path d="M155.2,25.4c-1.9-0.3-3.8-0.2-5.7-0.3c-0.4,0-0.8,0-1.3-0.1c0-2.3,0-4.6,0-6.8c-1.1,0-2.2,0-3.3,0c0,5.1,0,10.2,0,15.4
					c0.1,5,4.3,8.7,9.2,8.3c4.2-0.4,7.3-3.7,7.6-7.9C162,29.9,159.3,26.2,155.2,25.4z M158.5,33.8c-0.2,2.8-2.3,4.8-5,4.9
					c-2.8,0.1-5-1.8-5.3-4.7l0-5.5l6,0C156.9,28.9,158.7,31.4,158.5,33.8z"/>
				<path d="M133.1,25.2c-4,0.6-7,3.9-7.1,8.1c-0.1,4,2.8,7.7,6.7,8.3l10.1,0l0-8.7C142.5,27.9,138.2,24.5,133.1,25.2z M133.3,38.4
					c-2.7-0.4-4.4-3-4-5.8c0.3-2.5,2.7-4.5,5.2-4.4c2.8,0.1,4.9,2.2,5,4.9l0,5.3L133.3,38.4z"/>
				<path d="M171.1,25.2c-4,0.6-7,3.9-7.1,8.1c-0.1,4,2.8,7.7,6.7,8.3l10.1,0l0-8.7C180.4,27.9,176.1,24.5,171.1,25.2z M171.3,38.4
					c-2.7-0.4-4.4-3-4-5.8c0.3-2.5,2.7-4.5,5.2-4.4c2.8,0.1,4.9,2.2,5,4.9l0,5.3L171.3,38.4z"/>
				<path d="M124.6,40.7l-6-7.4l6.4-8.1l-4.2,0l-3.9,5.2l-3.8-5.1l-4,0c0.3,0.5,0.5,0.7,0.7,1l5.2,7.2l-5.7,7.5
					c-0.2,0.3-0.4,0.6-0.7,1l4.3,0l3.9-5.5c0.3,0.3,0.5,0.6,0.7,0.8l3.6,4.7l4.6,0C125.1,41.4,124.9,41.1,124.6,40.7z"/>
				<path d="M102.6,25.1c1,0,2,0,3.1,0c0,5.6,0,11.1,0,16.7c-1,0-2,0-3.1,0C102.6,36.3,102.6,30.7,102.6,25.1z"/>
			</g>
		</g>
		<g>
			<line class="st0" x1="2.2" y1="80.5" x2="3.2" y2="80.5"/>
			<line class="st1" x1="15.1" y1="80.5" x2="279.2" y2="80.5"/>
			<line class="st0" x1="279.2" y1="80.5" x2="280.2" y2="80.5"/>
			<line class="st0" x1="13.1" y1="80.5" x2="182.1" y2="80.5"/>
			<line class="st0" x1="223.1" y1="80.5" x2="281.1" y2="80.5"/>
		</g>
		<path class="st2" d="M202.7,53.9h-122c-3.9,0-7.1-3.2-7.1-7.1V20.3c0-3.9,3.2-7.1,7.1-7.1h122c3.9,0,7.1,3.2,7.1,7.1v26.5
			C209.7,50.7,206.6,53.9,202.7,53.9z"/>
	</g>
</g>
</svg>
