<svg xmlns="http://www.w3.org/2000/svg" viewBox="0 0 283.83 83"><defs><style>.cls-1{fill:#fff;stroke-width:2px;}.cls-1,.cls-3,.cls-4{stroke:#000;stroke-linecap:round;stroke-linejoin:round;}.cls-2{fill:#030104;}.cls-3,.cls-4{fill:none;stroke-width:5px;}.cls-4{stroke-dasharray:1.99 11.91 0 0 0 0;}</style></defs><title>Ativo 15column</title><g id="Camada_2" data-name="Camada 2"><g id="Camada_3" data-name="Camada 3"><rect class="cls-1" x="113.82" y="1" width="56.02" height="56.02" rx="12" ry="12"/><path class="cls-2" d="M141.83,24.51a6.75,6.75,0,1,0,6.75,6.75A6.75,6.75,0,0,0,141.83,24.51Zm18-6.75h-5.4a2,2,0,0,1-1.78-1.28l-1.4-4.19A2,2,0,0,0,149.48,11h-15.3a2,2,0,0,0-1.78,1.28L131,16.48a2,2,0,0,1-1.78,1.28h-5.4a4.51,4.51,0,0,0-4.5,4.5V42.51a4.51,4.51,0,0,0,4.5,4.5h36a4.51,4.51,0,0,0,4.5-4.5V22.26A4.51,4.51,0,0,0,159.83,17.76Zm-18,24.75a11.25,11.25,0,1,1,11.25-11.25A11.25,11.25,0,0,1,141.83,42.51Zm16.43-17.1a1.57,1.57,0,1,1,1.57-1.57A1.57,1.57,0,0,1,158.26,25.41Z"/><line class="cls-3" x1="2.5" y1="80.5" x2="3.5" y2="80.5"/><line class="cls-4" x1="15.41" y1="80.5" x2="279.5" y2="80.5"/><line class="cls-3" x1="279.5" y1="80.5" x2="280.5" y2="80.5"/><line class="cls-3" x1="13.33" y1="80.5" x2="182.33" y2="80.5"/><line class="cls-3" x1="223.33" y1="80.5" x2="281.33" y2="80.5"/></g></g></svg>