<svg xmlns="http://www.w3.org/2000/svg" viewBox="0 0 283.83 83.59"><defs><style>.cls-1,.cls-2{fill:none;stroke-width:5px;}.cls-1,.cls-2,.cls-3{stroke:#cd2900;stroke-linecap:round;stroke-linejoin:round;}.cls-2{stroke-dasharray:1.99 11.91 0 0 0 0;}.cls-3,.cls-5{fill:#fff;}.cls-3{stroke-width:2px;}.cls-4{fill:#cd2900;}</style></defs><title>Ativo 14column</title><g id="Camada_2" data-name="Camada 2"><g id="Camada_3" data-name="Camada 3"><line class="cls-1" x1="2.5" y1="81.09" x2="3.5" y2="81.09"/><line class="cls-2" x1="15.41" y1="81.09" x2="279.5" y2="81.09"/><line class="cls-1" x1="279.5" y1="81.09" x2="280.5" y2="81.09"/><line class="cls-1" x1="13.33" y1="81.09" x2="182.33" y2="81.09"/><line class="cls-1" x1="223.33" y1="81.09" x2="281.33" y2="81.09"/><rect class="cls-3" x="113" y="1" width="56.02" height="56.02" rx="12" ry="12"/><path class="cls-4" d="M140.75,44.69a159.75,159.75,0,0,1-17.92-1,2.5,2.5,0,0,1-2.19-2.11,89.86,89.86,0,0,1,0-26,2.5,2.5,0,0,1,2.19-2.11,159.38,159.38,0,0,1,35.83,0,2.5,2.5,0,0,1,2.19,2.11,89.86,89.86,0,0,1,0,26,2.5,2.5,0,0,1-2.19,2.11A159.78,159.78,0,0,1,140.75,44.69Z"/><path d="M161.71,15.47a3.36,3.36,0,0,0-2.95-2.85,160.25,160.25,0,0,0-36,0,3.36,3.36,0,0,0-2.95,2.85,90.73,90.73,0,0,0,0,26.22,3.36,3.36,0,0,0,2.95,2.85,160.07,160.07,0,0,0,18,1q3.84,0,7.68-.19a.93.93,0,0,0,.88-.93h0a.93.93,0,0,0-1-.92,158.37,158.37,0,0,1-25.39-.82,1.51,1.51,0,0,1-1.33-1.27,88.88,88.88,0,0,1,0-25.69,1.51,1.51,0,0,1,1.33-1.27,158.39,158.39,0,0,1,35.61,0,1.51,1.51,0,0,1,1.33,1.27,88.88,88.88,0,0,1,0,25.69,1.51,1.51,0,0,1-1.33,1.27h0q-2.86.32-5.73.54a.93.93,0,0,0-.86.92h0a.93.93,0,0,0,1,.92q2.9-.22,5.8-.55a3.36,3.36,0,0,0,2.95-2.85A90.73,90.73,0,0,0,161.71,15.47Z"/><polygon class="cls-5" points="148.64 28.58 135.51 35.48 135.51 21.68 148.64 28.58"/><path d="M135.51,35.48l13.13-6.9-13.13-6.9Zm15.55-7.72a.91.91,0,0,1,.5.82.93.93,0,0,1-.5.82L135,37.83a.89.89,0,0,1-.91,0,.9.9,0,0,1-.45-.79V20.15a.93.93,0,0,1,.45-.8,1,1,0,0,1,.91,0Z"/></g></g></svg>