<svg xmlns="http://www.w3.org/2000/svg" xmlns:xlink="http://www.w3.org/1999/xlink" viewBox="0 0 2870 1435"><defs><style>.cls-1{fill:none;}.cls-2{fill:#030104;}.cls-3{fill:#ea4640;}.cls-4{fill:#fff;}.cls-5{fill:#231f20;}.cls-6{fill:#2d7bf9;}.cls-7{fill:#274694;}.cls-8{opacity:0.04;}.cls-9{fill:url(#pattern_L1_5);}.cls-10{fill:url(#pattern_L1_4);}.cls-11{fill:url(#pattern_L1_2);}</style><pattern id="pattern_L1_5" data-name="pattern L1 5" width="350" height="350" patternTransform="matrix(1.59, 0, 0, -1.59, 785.06, 2085.2)" patternUnits="userSpaceOnUse" viewBox="0 0 350 350"><rect class="cls-1" width="350" height="350"/><g id="L1_0" data-name="L1 0"><path class="cls-6" d="M-97.25,592.79c-7.34,0-10.83-3.89-12.46-7.16a17.5,17.5,0,0,1-1.66-5.69,8.65,8.65,0,0,1-2,3.84,6.2,6.2,0,0,1-1.81,1.33c1.51,1,3,2.89,3,6.33a9.72,9.72,0,0,1-3.16,7.62,11.32,11.32,0,0,1-7.55,2.51h-18a.93.93,0,0,1-.93-.93V566.08a.93.93,0,0,1,.93-.93h18.11a14.62,14.62,0,0,1,6.3,1.49,9.76,9.76,0,0,1,5.39,7.9,13.17,13.17,0,0,1,3.12-6.12c2.47-2.65,6.07-4,10.68-4h.5a17,17,0,0,1,6.9,1.44,8.69,8.69,0,0,1,5.38,8.45.93.93,0,0,1-.93.93h-6.08a.92.92,0,0,1-.67-.28.92.92,0,0,1-.25-.68,2,2,0,0,0-.69-1.32A5.45,5.45,0,0,0-97,571.76h-.21a6,6,0,0,0-2.87.74,4.31,4.31,0,0,0-2,3.42h16.94a.93.93,0,0,1,.92.81c0,.3.92,7.49-3.2,12.19C-89.75,591.49-93,592.79-97.25,592.79ZM-102,582.39a5,5,0,0,0,4.88,3.47,4.16,4.16,0,0,0,3.07-1.1,4.63,4.63,0,0,0,1.17-2.37Zm-30-1.86h9.14c.28,0,2.71-.13,2.71-3.82,0-2.41-1-3.51-3.23-3.56H-132Zm8.51,7.19H-132v5.86h9.11c.26,0,1.54-.19,1.54-2.67C-121.37,587.72-122.51,587.72-123.51,587.72Z"/><path class="cls-6" d="M-104.69,596.27h14.27a.87.87,0,0,1,.93.8v3.67a.87.87,0,0,1-.93.8h-14.27a.87.87,0,0,1-.93-.8v-3.67A.87.87,0,0,1-104.69,596.27Z"/><path class="cls-7" d="M-96.78,563.22h-.52c-4.94,0-8.82,1.48-11.52,4.38a13.2,13.2,0,0,0-2.11,3,10.86,10.86,0,0,0-5-5.06,15.88,15.88,0,0,0-6.85-1.62h-18.11a2.13,2.13,0,0,0-2.12,2.12v34.57a2.13,2.13,0,0,0,2.12,2.12h18a12.49,12.49,0,0,0,8.33-2.8,10.87,10.87,0,0,0,3.57-8.53,8.69,8.69,0,0,0-2.2-6.2,7.59,7.59,0,0,0,.69-.65,8.07,8.07,0,0,0,.72-.87,17.26,17.26,0,0,0,1,2.44c1.78,3.57,5.58,7.82,13.53,7.82,4.58,0,8.16-1.44,10.65-4.27,4.48-5.1,3.53-12.81,3.49-13.13a2.12,2.12,0,0,0-.52-1.14,2.11,2.11,0,0,0,.33-1.14,9.86,9.86,0,0,0-6.07-9.53A18.23,18.23,0,0,0-96.78,563.22Zm-14.29,12.52a1.2,1.2,0,0,0,1.17-.93,11.86,11.86,0,0,1,2.83-5.57c2.24-2.4,5.54-3.62,9.81-3.62h.5a15.76,15.76,0,0,1,6.39,1.32,7.51,7.51,0,0,1,4.7,7.1h-5.56a3.35,3.35,0,0,0-1-1.92A6.55,6.55,0,0,0-97,570.57h-.22a7.08,7.08,0,0,0-3.48.91,5.51,5.51,0,0,0-2.6,4.31,1.19,1.19,0,0,0,.29.93,1.2,1.2,0,0,0,.89.4h16.7c.12,1.25.48,7.11-2.94,11-2,2.3-5,3.46-8.85,3.46-6.73,0-9.91-3.53-11.39-6.49a16.23,16.23,0,0,1-1.54-5.3,1.2,1.2,0,0,0-1.11-1.05,1.2,1.2,0,0,0-1.24.9,7.39,7.39,0,0,1-1.69,3.32,5,5,0,0,1-1.47,1.08,1.2,1.2,0,0,0-.67,1,1.2,1.2,0,0,0,.53,1.08,6,6,0,0,1,2.47,5.34,8.56,8.56,0,0,1-2.75,6.72,10.15,10.15,0,0,1-6.77,2.22h-17.72v-34h17.84a13.37,13.37,0,0,1,5.76,1.36,8.54,8.54,0,0,1,4.75,7,1.2,1.2,0,0,0,1.13,1Zm10.47-1a2.73,2.73,0,0,1,1.09-1.2,4.79,4.79,0,0,1,2.25-.57H-97a4.52,4.52,0,0,1,3.07.82,1.32,1.32,0,0,1,.35.51,2.12,2.12,0,0,0,0,.43ZM-123.4,572H-132a1.2,1.2,0,0,0-1.2,1.2v7.38a1.2,1.2,0,0,0,1.2,1.2h9.14c1.46,0,3.91-1.08,3.91-5s-2.39-4.71-4.4-4.76Zm-7.42,2.39h7.41c1.39,0,2.05.4,2.05,2.37,0,2.42-1.17,2.62-1.53,2.62h-7.93v-5Zm37.94,6.85H-102a1.19,1.19,0,0,0-1,.51,1.2,1.2,0,0,0-.14,1.1,6.14,6.14,0,0,0,6,4.25,5.3,5.3,0,0,0,3.92-1.45,5.82,5.82,0,0,0,1.49-3,1.19,1.19,0,0,0-.25-1A1.2,1.2,0,0,0-92.88,581.2Zm-7,2.39h5.29a2.45,2.45,0,0,1-.28.33,3,3,0,0,1-2.22.75A3.71,3.71,0,0,1-99.91,583.59Zm-23.6,2.94H-132a1.2,1.2,0,0,0-1.2,1.2v5.86a1.2,1.2,0,0,0,1.2,1.2h9.16c.27,0,2.68-.22,2.68-3.86,0-1.79-.34-2.95-1.06-3.65A3,3,0,0,0-123.51,586.53Zm-7.31,2.39h7.31a1.68,1.68,0,0,1,.61.06s.33.37.33,1.93c0,1-.26,1.43-.4,1.47h-7.85v-3.47Z"/><path class="cls-7" d="M-90.43,595.07h-14.27a2.07,2.07,0,0,0-2.12,2v3.67a2.07,2.07,0,0,0,2.12,2h14.27a2.07,2.07,0,0,0,2.12-2v-3.67A2.07,2.07,0,0,0-90.43,595.07Zm-14,2.39h13.73v2.89h-13.73Z"/><path class="cls-7" d="M-138.22,567.7a1.2,1.2,0,0,0-1.2,1.2v6a1.2,1.2,0,0,0,1.2,1.2,1.2,1.2,0,0,0,1.2-1.2v-6A1.2,1.2,0,0,0-138.22,567.7Z"/><path class="cls-7" d="M-138.22,577.38a1.2,1.2,0,0,0-1.2,1.2v.6a1.2,1.2,0,0,0,1.2,1.2,1.2,1.2,0,0,0,1.2-1.2v-.6A1.2,1.2,0,0,0-138.22,577.38Z"/></g><g id="L1_0-2" data-name="L1 0"><path class="cls-6" d="M252.75,592.79c-7.34,0-10.83-3.89-12.46-7.16a17.5,17.5,0,0,1-1.66-5.69,8.65,8.65,0,0,1-2,3.84,6.2,6.2,0,0,1-1.81,1.33c1.51,1,3,2.89,3,6.33a9.72,9.72,0,0,1-3.16,7.62,11.32,11.32,0,0,1-7.55,2.51h-18a.93.93,0,0,1-.93-.93V566.08a.93.93,0,0,1,.93-.93h18.11a14.62,14.62,0,0,1,6.3,1.49,9.76,9.76,0,0,1,5.39,7.9,13.17,13.17,0,0,1,3.12-6.12c2.47-2.65,6.07-4,10.68-4h.5a17,17,0,0,1,6.9,1.44,8.69,8.69,0,0,1,5.38,8.45.93.93,0,0,1-.93.93h-6.08a.92.92,0,0,1-.93-1,2,2,0,0,0-.69-1.32,5.45,5.45,0,0,0-3.93-1.18h-.21a6,6,0,0,0-2.87.74,4.31,4.31,0,0,0-2,3.42h16.94a.93.93,0,0,1,.92.81c0,.3.92,7.49-3.2,12.19C260.25,591.49,257,592.79,252.75,592.79ZM248,582.39a5,5,0,0,0,4.88,3.47,4.16,4.16,0,0,0,3.07-1.1,4.63,4.63,0,0,0,1.17-2.37Zm-30-1.86h9.14c.28,0,2.71-.13,2.71-3.82,0-2.41-1-3.51-3.23-3.56H218Zm8.51,7.19H218v5.86h9.11c.26,0,1.54-.19,1.54-2.67C228.63,587.72,227.49,587.72,226.49,587.72Z"/><path class="cls-6" d="M245.31,596.27h14.27a.87.87,0,0,1,.93.8v3.67a.87.87,0,0,1-.93.8H245.31a.87.87,0,0,1-.93-.8v-3.67A.87.87,0,0,1,245.31,596.27Z"/><path class="cls-7" d="M253.22,563.22h-.52c-4.94,0-8.82,1.48-11.52,4.38a13.2,13.2,0,0,0-2.11,3,10.86,10.86,0,0,0-5-5.06,15.88,15.88,0,0,0-6.85-1.62H209.12a2.13,2.13,0,0,0-2.12,2.12v34.57a2.13,2.13,0,0,0,2.12,2.12h18a12.49,12.49,0,0,0,8.33-2.8,10.87,10.87,0,0,0,3.57-8.53,8.69,8.69,0,0,0-2.2-6.2,7.59,7.59,0,0,0,.69-.65,8.07,8.07,0,0,0,.72-.87,17.26,17.26,0,0,0,1,2.44c1.78,3.57,5.58,7.82,13.53,7.82,4.58,0,8.16-1.44,10.65-4.27,4.48-5.1,3.53-12.81,3.49-13.13a1.74,1.74,0,0,1-.19-2.28,9.86,9.86,0,0,0-6.07-9.53A18.23,18.23,0,0,0,253.22,563.22Zm-14.29,12.52a1.2,1.2,0,0,0,1.17-.93,11.86,11.86,0,0,1,2.83-5.57c2.24-2.4,5.54-3.62,9.81-3.62h.5a15.76,15.76,0,0,1,6.39,1.32,7.51,7.51,0,0,1,4.7,7.1h-5.56a3.35,3.35,0,0,0-1-1.92,6.55,6.55,0,0,0-4.77-1.54h-.22a7.08,7.08,0,0,0-3.48.91,5.51,5.51,0,0,0-2.6,4.31,1.2,1.2,0,0,0,1.19,1.33h16.7c.12,1.25.48,7.11-2.94,11-2,2.3-5,3.46-8.85,3.46-6.73,0-9.91-3.53-11.39-6.49a16.23,16.23,0,0,1-1.54-5.3,1.2,1.2,0,0,0-2.35-.16,7.39,7.39,0,0,1-1.69,3.32,5,5,0,0,1-1.47,1.08,1.2,1.2,0,0,0-.15,2.07,6,6,0,0,1,2.47,5.34,8.56,8.56,0,0,1-2.75,6.72,10.15,10.15,0,0,1-6.77,2.22H209.39v-34h17.84a13.37,13.37,0,0,1,5.76,1.36,8.54,8.54,0,0,1,4.75,7,1.2,1.2,0,0,0,1.13,1Zm10.47-1a2.73,2.73,0,0,1,1.09-1.2,4.79,4.79,0,0,1,2.25-.57H253a4.52,4.52,0,0,1,3.07.82,1.32,1.32,0,0,1,.35.51,2.12,2.12,0,0,0,0,.43ZM226.6,572H218a1.2,1.2,0,0,0-1.2,1.2v7.38a1.2,1.2,0,0,0,1.2,1.2h9.14c1.46,0,3.91-1.08,3.91-5s-2.39-4.71-4.4-4.76Zm-7.42,2.39h7.41c1.39,0,2.05.4,2.05,2.37,0,2.42-1.17,2.62-1.53,2.62h-7.93v-5Zm37.94,6.85H248a1.2,1.2,0,0,0-1.12,1.61,6.14,6.14,0,0,0,6,4.25,5.3,5.3,0,0,0,3.92-1.45,5.82,5.82,0,0,0,1.49-3,1.2,1.2,0,0,0-1.17-1.42Zm-7,2.39h5.29a2.45,2.45,0,0,1-.28.33,3,3,0,0,1-2.22.75A3.71,3.71,0,0,1,250.09,583.59Zm-23.6,2.94H218a1.2,1.2,0,0,0-1.2,1.2v5.86a1.2,1.2,0,0,0,1.2,1.2h9.16c.27,0,2.68-.22,2.68-3.86,0-1.79-.34-2.95-1.06-3.65A3,3,0,0,0,226.49,586.53Zm-7.31,2.39h7.31a1.68,1.68,0,0,1,.61.06s.33.37.33,1.93c0,1-.26,1.43-.4,1.47h-7.85v-3.47Z"/><path class="cls-7" d="M259.57,595.07H245.31a2.07,2.07,0,0,0-2.12,2v3.67a2.07,2.07,0,0,0,2.12,2h14.27a2.07,2.07,0,0,0,2.12-2v-3.67A2.07,2.07,0,0,0,259.57,595.07Zm-14,2.39h13.73v2.89H245.57Z"/><path class="cls-7" d="M211.78,567.7a1.2,1.2,0,0,0-1.2,1.2v6a1.2,1.2,0,1,0,2.39,0v-6A1.2,1.2,0,0,0,211.78,567.7Z"/><path class="cls-7" d="M211.78,577.38a1.2,1.2,0,0,0-1.2,1.2v.6a1.2,1.2,0,1,0,2.39,0v-.6A1.2,1.2,0,0,0,211.78,577.38Z"/></g><g id="L1_0-3" data-name="L1 0"><path class="cls-6" d="M602.75,592.79c-7.34,0-10.83-3.89-12.46-7.16a17.5,17.5,0,0,1-1.66-5.69,8.65,8.65,0,0,1-2,3.84,6.2,6.2,0,0,1-1.81,1.33c1.51,1,3,2.89,3,6.33a9.72,9.72,0,0,1-3.16,7.62,11.32,11.32,0,0,1-7.55,2.51h-18a.93.93,0,0,1-.93-.93V566.08a.93.93,0,0,1,.93-.93h18.11a14.62,14.62,0,0,1,6.3,1.49,9.76,9.76,0,0,1,5.39,7.9,13.17,13.17,0,0,1,3.12-6.12c2.47-2.65,6.07-4,10.68-4h.5a17,17,0,0,1,6.9,1.44,8.69,8.69,0,0,1,5.38,8.45.93.93,0,0,1-.93.93h-6.08a.92.92,0,0,1-.93-1,2,2,0,0,0-.69-1.32,5.45,5.45,0,0,0-3.93-1.18h-.21a6,6,0,0,0-2.87.74,4.31,4.31,0,0,0-2,3.42h16.94a.93.93,0,0,1,.92.81c0,.3.92,7.49-3.2,12.19C610.25,591.49,607,592.79,602.75,592.79ZM598,582.39a5,5,0,0,0,4.88,3.47,4.16,4.16,0,0,0,3.07-1.1,4.63,4.63,0,0,0,1.17-2.37Zm-30-1.86h9.14c.28,0,2.71-.13,2.71-3.82,0-2.41-1-3.51-3.23-3.56H568Zm8.51,7.19H568v5.86h9.11c.26,0,1.54-.19,1.54-2.67C578.63,587.72,577.49,587.72,576.49,587.72Z"/><path class="cls-6" d="M595.31,596.27h14.27a.87.87,0,0,1,.93.8v3.67a.87.87,0,0,1-.93.8H595.31a.87.87,0,0,1-.93-.8v-3.67A.87.87,0,0,1,595.31,596.27Z"/><path class="cls-7" d="M603.22,563.22h-.52c-4.94,0-8.82,1.48-11.52,4.38a13.2,13.2,0,0,0-2.11,3,10.86,10.86,0,0,0-5-5.06,15.88,15.88,0,0,0-6.85-1.62H559.12a2.13,2.13,0,0,0-2.12,2.12v34.57a2.13,2.13,0,0,0,2.12,2.12h18a12.49,12.49,0,0,0,8.33-2.8,10.87,10.87,0,0,0,3.57-8.53,8.69,8.69,0,0,0-2.2-6.2,7.59,7.59,0,0,0,.69-.65,8.07,8.07,0,0,0,.72-.87,17.26,17.26,0,0,0,1,2.44c1.78,3.57,5.58,7.82,13.53,7.82,4.58,0,8.16-1.44,10.65-4.27,4.48-5.1,3.53-12.81,3.49-13.13a1.74,1.74,0,0,1-.19-2.28,9.86,9.86,0,0,0-6.07-9.53A18.23,18.23,0,0,0,603.22,563.22Zm-14.29,12.52a1.2,1.2,0,0,0,1.17-.93,11.86,11.86,0,0,1,2.83-5.57c2.24-2.4,5.54-3.62,9.81-3.62h.5a15.76,15.76,0,0,1,6.39,1.32,7.51,7.51,0,0,1,4.7,7.1h-5.56a3.35,3.35,0,0,0-1-1.92,6.55,6.55,0,0,0-4.77-1.54h-.22a7.08,7.08,0,0,0-3.48.91,5.51,5.51,0,0,0-2.6,4.31,1.2,1.2,0,0,0,1.19,1.33h16.7c.12,1.25.48,7.11-2.94,11-2,2.3-5,3.46-8.85,3.46-6.73,0-9.91-3.53-11.39-6.49a16.23,16.23,0,0,1-1.54-5.3,1.2,1.2,0,0,0-2.35-.16,7.39,7.39,0,0,1-1.69,3.32,5,5,0,0,1-1.47,1.08,1.2,1.2,0,0,0-.15,2.07,6,6,0,0,1,2.47,5.34,8.56,8.56,0,0,1-2.75,6.72,10.15,10.15,0,0,1-6.77,2.22H559.39v-34h17.84a13.37,13.37,0,0,1,5.76,1.36,8.54,8.54,0,0,1,4.75,7,1.2,1.2,0,0,0,1.13,1Zm10.47-1a2.73,2.73,0,0,1,1.09-1.2,4.79,4.79,0,0,1,2.25-.57H603a4.52,4.52,0,0,1,3.07.82,1.32,1.32,0,0,1,.35.51,2.12,2.12,0,0,0,0,.43ZM576.6,572H568a1.2,1.2,0,0,0-1.2,1.2v7.38a1.2,1.2,0,0,0,1.2,1.2h9.14c1.46,0,3.91-1.08,3.91-5s-2.39-4.71-4.4-4.76Zm-7.42,2.39h7.41c1.39,0,2.05.4,2.05,2.37,0,2.42-1.17,2.62-1.53,2.62h-7.93v-5Zm37.94,6.85H598a1.2,1.2,0,0,0-1.12,1.61,6.14,6.14,0,0,0,6,4.25,5.3,5.3,0,0,0,3.92-1.45,5.82,5.82,0,0,0,1.49-3,1.2,1.2,0,0,0-1.17-1.42Zm-7,2.39h5.29a2.45,2.45,0,0,1-.28.33,3,3,0,0,1-2.22.75A3.71,3.71,0,0,1,600.09,583.59Zm-23.6,2.94H568a1.2,1.2,0,0,0-1.2,1.2v5.86a1.2,1.2,0,0,0,1.2,1.2h9.16c.27,0,2.68-.22,2.68-3.86,0-1.79-.34-2.95-1.06-3.65A3,3,0,0,0,576.49,586.53Zm-7.31,2.39h7.31a1.68,1.68,0,0,1,.61.06s.33.37.33,1.93c0,1-.26,1.43-.4,1.47h-7.85v-3.47Z"/><path class="cls-7" d="M609.57,595.07H595.31a2.07,2.07,0,0,0-2.12,2v3.67a2.07,2.07,0,0,0,2.12,2h14.27a2.07,2.07,0,0,0,2.12-2v-3.67A2.07,2.07,0,0,0,609.57,595.07Zm-14,2.39h13.73v2.89H595.57Z"/><path class="cls-7" d="M561.78,567.7a1.2,1.2,0,0,0-1.2,1.2v6a1.2,1.2,0,1,0,2.39,0v-6A1.2,1.2,0,0,0,561.78,567.7Z"/><path class="cls-7" d="M561.78,577.38a1.2,1.2,0,0,0-1.2,1.2v.6a1.2,1.2,0,1,0,2.39,0v-.6A1.2,1.2,0,0,0,561.78,577.38Z"/></g><g id="L1_0-4" data-name="L1 0"><path class="cls-6" d="M-97.25,242.79c-7.34,0-10.83-3.89-12.46-7.16a17.5,17.5,0,0,1-1.66-5.69,8.65,8.65,0,0,1-2,3.84,6.2,6.2,0,0,1-1.81,1.33c1.51,1,3,2.89,3,6.33a9.72,9.72,0,0,1-3.16,7.62,11.32,11.32,0,0,1-7.55,2.51h-18a.93.93,0,0,1-.93-.93V216.08a.93.93,0,0,1,.93-.93h18.11a14.62,14.62,0,0,1,6.3,1.49,9.76,9.76,0,0,1,5.39,7.9,13.17,13.17,0,0,1,3.12-6.12c2.47-2.65,6.07-4,10.68-4h.5a17,17,0,0,1,6.9,1.44,8.69,8.69,0,0,1,5.38,8.45.93.93,0,0,1-.93.93h-6.08a.92.92,0,0,1-.67-.28.92.92,0,0,1-.25-.68,2,2,0,0,0-.69-1.32A5.45,5.45,0,0,0-97,221.76h-.21a6,6,0,0,0-2.87.74,4.31,4.31,0,0,0-2,3.42h16.94a.93.93,0,0,1,.92.81c0,.3.92,7.49-3.2,12.19C-89.75,241.49-93,242.79-97.25,242.79ZM-102,232.39a5,5,0,0,0,4.88,3.47,4.16,4.16,0,0,0,3.07-1.1,4.63,4.63,0,0,0,1.17-2.37Zm-30-1.86h9.14c.28,0,2.71-.13,2.71-3.82,0-2.41-1-3.51-3.23-3.56H-132Zm8.51,7.19H-132v5.86h9.11c.26,0,1.54-.19,1.54-2.67C-121.37,237.72-122.51,237.72-123.51,237.72Z"/><path class="cls-6" d="M-104.69,246.27h14.27a.87.87,0,0,1,.93.8v3.67a.87.87,0,0,1-.93.8h-14.27a.87.87,0,0,1-.93-.8v-3.67A.87.87,0,0,1-104.69,246.27Z"/><path class="cls-7" d="M-96.78,213.22h-.52c-4.94,0-8.82,1.48-11.52,4.38a13.2,13.2,0,0,0-2.11,3,10.86,10.86,0,0,0-5-5.06,15.88,15.88,0,0,0-6.85-1.62h-18.11a2.13,2.13,0,0,0-2.12,2.12v34.57a2.13,2.13,0,0,0,2.12,2.12h18a12.49,12.49,0,0,0,8.33-2.8,10.87,10.87,0,0,0,3.57-8.53,8.69,8.69,0,0,0-2.2-6.2,7.59,7.59,0,0,0,.69-.65,8.07,8.07,0,0,0,.72-.87,17.26,17.26,0,0,0,1,2.44c1.78,3.57,5.58,7.82,13.53,7.82,4.58,0,8.16-1.44,10.65-4.27,4.48-5.1,3.53-12.81,3.49-13.13a2.12,2.12,0,0,0-.52-1.14,2.11,2.11,0,0,0,.33-1.14,9.86,9.86,0,0,0-6.07-9.53A18.23,18.23,0,0,0-96.78,213.22Zm-14.29,12.52a1.2,1.2,0,0,0,1.17-.93,11.86,11.86,0,0,1,2.83-5.57c2.24-2.4,5.54-3.62,9.81-3.62h.5a15.76,15.76,0,0,1,6.39,1.32,7.51,7.51,0,0,1,4.7,7.1h-5.56a3.35,3.35,0,0,0-1-1.92A6.55,6.55,0,0,0-97,220.57h-.22a7.08,7.08,0,0,0-3.48.91,5.51,5.51,0,0,0-2.6,4.31,1.19,1.19,0,0,0,.29.93,1.2,1.2,0,0,0,.89.4h16.7c.12,1.25.48,7.11-2.94,11-2,2.3-5,3.46-8.85,3.46-6.73,0-9.91-3.53-11.39-6.49a16.23,16.23,0,0,1-1.54-5.3,1.2,1.2,0,0,0-1.11-1.05,1.2,1.2,0,0,0-1.24.9,7.39,7.39,0,0,1-1.69,3.32,5,5,0,0,1-1.47,1.08,1.2,1.2,0,0,0-.67,1,1.2,1.2,0,0,0,.53,1.08,6,6,0,0,1,2.47,5.34,8.56,8.56,0,0,1-2.75,6.72,10.15,10.15,0,0,1-6.77,2.22h-17.72v-34h17.84a13.37,13.37,0,0,1,5.76,1.36,8.54,8.54,0,0,1,4.75,7,1.2,1.2,0,0,0,1.13,1Zm10.47-1a2.73,2.73,0,0,1,1.09-1.2,4.79,4.79,0,0,1,2.25-.57H-97a4.52,4.52,0,0,1,3.07.82,1.32,1.32,0,0,1,.35.51,2.12,2.12,0,0,0,0,.43ZM-123.4,222H-132a1.2,1.2,0,0,0-1.2,1.2v7.38a1.2,1.2,0,0,0,1.2,1.2h9.14c1.46,0,3.91-1.08,3.91-5s-2.39-4.71-4.4-4.76Zm-7.42,2.39h7.41c1.39,0,2.05.4,2.05,2.37,0,2.42-1.17,2.62-1.53,2.62h-7.93v-5Zm37.94,6.85H-102a1.19,1.19,0,0,0-1,.51,1.2,1.2,0,0,0-.14,1.1,6.14,6.14,0,0,0,6,4.25,5.3,5.3,0,0,0,3.92-1.45,5.82,5.82,0,0,0,1.49-3,1.19,1.19,0,0,0-.25-1A1.2,1.2,0,0,0-92.88,231.2Zm-7,2.39h5.29a2.45,2.45,0,0,1-.28.33,3,3,0,0,1-2.22.75A3.71,3.71,0,0,1-99.91,233.59Zm-23.6,2.94H-132a1.2,1.2,0,0,0-1.2,1.2v5.86a1.2,1.2,0,0,0,1.2,1.2h9.16c.27,0,2.68-.22,2.68-3.86,0-1.79-.34-2.95-1.06-3.65A3,3,0,0,0-123.51,236.53Zm-7.31,2.39h7.31a1.68,1.68,0,0,1,.61.06s.33.37.33,1.93c0,1-.26,1.43-.4,1.47h-7.85v-3.47Z"/><path class="cls-7" d="M-90.43,245.07h-14.27a2.07,2.07,0,0,0-2.12,2v3.67a2.07,2.07,0,0,0,2.12,2h14.27a2.07,2.07,0,0,0,2.12-2v-3.67A2.07,2.07,0,0,0-90.43,245.07Zm-14,2.39h13.73v2.89h-13.73Z"/><path class="cls-7" d="M-138.22,217.7a1.2,1.2,0,0,0-1.2,1.2v6a1.2,1.2,0,0,0,1.2,1.2,1.2,1.2,0,0,0,1.2-1.2v-6A1.2,1.2,0,0,0-138.22,217.7Z"/><path class="cls-7" d="M-138.22,227.38a1.2,1.2,0,0,0-1.2,1.2v.6a1.2,1.2,0,0,0,1.2,1.2,1.2,1.2,0,0,0,1.2-1.2v-.6A1.2,1.2,0,0,0-138.22,227.38Z"/></g><g id="L1_0-5" data-name="L1 0"><path class="cls-6" d="M252.75,242.79c-7.34,0-10.83-3.89-12.46-7.16a17.5,17.5,0,0,1-1.66-5.69,8.65,8.65,0,0,1-2,3.84,6.2,6.2,0,0,1-1.81,1.33c1.51,1,3,2.89,3,6.33a9.72,9.72,0,0,1-3.16,7.62,11.32,11.32,0,0,1-7.55,2.51h-18a.93.93,0,0,1-.93-.93V216.08a.93.93,0,0,1,.93-.93h18.11a14.62,14.62,0,0,1,6.3,1.49,9.76,9.76,0,0,1,5.39,7.9,13.17,13.17,0,0,1,3.12-6.12c2.47-2.65,6.07-4,10.68-4h.5a17,17,0,0,1,6.9,1.44,8.69,8.69,0,0,1,5.38,8.45.93.93,0,0,1-.93.93h-6.08a.92.92,0,0,1-.93-1,2,2,0,0,0-.69-1.32,5.45,5.45,0,0,0-3.93-1.18h-.21a6,6,0,0,0-2.87.74,4.31,4.31,0,0,0-2,3.42h16.94a.93.93,0,0,1,.92.81c0,.3.92,7.49-3.2,12.19C260.25,241.49,257,242.79,252.75,242.79ZM248,232.39a5,5,0,0,0,4.88,3.47,4.16,4.16,0,0,0,3.07-1.1,4.63,4.63,0,0,0,1.17-2.37Zm-30-1.86h9.14c.28,0,2.71-.13,2.71-3.82,0-2.41-1-3.51-3.23-3.56H218Zm8.51,7.19H218v5.86h9.11c.26,0,1.54-.19,1.54-2.67C228.63,237.72,227.49,237.72,226.49,237.72Z"/><path class="cls-6" d="M245.31,246.27h14.27a.87.87,0,0,1,.93.8v3.67a.87.87,0,0,1-.93.8H245.31a.87.87,0,0,1-.93-.8v-3.67A.87.87,0,0,1,245.31,246.27Z"/><path class="cls-7" d="M253.22,213.22h-.52c-4.94,0-8.82,1.48-11.52,4.38a13.2,13.2,0,0,0-2.11,3,10.86,10.86,0,0,0-5-5.06,15.88,15.88,0,0,0-6.85-1.62H209.12a2.13,2.13,0,0,0-2.12,2.12v34.57a2.13,2.13,0,0,0,2.12,2.12h18a12.49,12.49,0,0,0,8.33-2.8,10.87,10.87,0,0,0,3.57-8.53,8.69,8.69,0,0,0-2.2-6.2,7.59,7.59,0,0,0,.69-.65,8.07,8.07,0,0,0,.72-.87,17.26,17.26,0,0,0,1,2.44c1.78,3.57,5.58,7.82,13.53,7.82,4.58,0,8.16-1.44,10.65-4.27,4.48-5.1,3.53-12.81,3.49-13.13a2.12,2.12,0,0,0-.52-1.14,2.11,2.11,0,0,0,.33-1.14,9.86,9.86,0,0,0-6.07-9.53A18.23,18.23,0,0,0,253.22,213.22Zm-14.29,12.52a1.2,1.2,0,0,0,1.17-.93,11.86,11.86,0,0,1,2.83-5.57c2.24-2.4,5.54-3.62,9.81-3.62h.5a15.76,15.76,0,0,1,6.39,1.32,7.51,7.51,0,0,1,4.7,7.1h-5.56a3.35,3.35,0,0,0-1-1.92,6.55,6.55,0,0,0-4.77-1.54h-.22a7.08,7.08,0,0,0-3.48.91,5.51,5.51,0,0,0-2.6,4.31,1.2,1.2,0,0,0,1.19,1.33h16.7c.12,1.25.48,7.11-2.94,11-2,2.3-5,3.46-8.85,3.46-6.73,0-9.91-3.53-11.39-6.49a16.23,16.23,0,0,1-1.54-5.3,1.2,1.2,0,0,0-2.35-.16,7.39,7.39,0,0,1-1.69,3.32,5,5,0,0,1-1.47,1.08,1.2,1.2,0,0,0-.15,2.07,6,6,0,0,1,2.47,5.34,8.56,8.56,0,0,1-2.75,6.72,10.15,10.15,0,0,1-6.77,2.22H209.39v-34h17.84a13.37,13.37,0,0,1,5.76,1.36,8.54,8.54,0,0,1,4.75,7,1.2,1.2,0,0,0,1.13,1Zm10.47-1a2.73,2.73,0,0,1,1.09-1.2,4.79,4.79,0,0,1,2.25-.57H253a4.52,4.52,0,0,1,3.07.82,1.32,1.32,0,0,1,.35.51,2.12,2.12,0,0,0,0,.43ZM226.6,222H218a1.2,1.2,0,0,0-1.2,1.2v7.38a1.2,1.2,0,0,0,1.2,1.2h9.14c1.46,0,3.91-1.08,3.91-5s-2.39-4.71-4.4-4.76Zm-7.42,2.39h7.41c1.39,0,2.05.4,2.05,2.37,0,2.42-1.17,2.62-1.53,2.62h-7.93v-5Zm37.94,6.85H248a1.2,1.2,0,0,0-1.12,1.61,6.14,6.14,0,0,0,6,4.25,5.3,5.3,0,0,0,3.92-1.45,5.82,5.82,0,0,0,1.49-3,1.2,1.2,0,0,0-1.17-1.42Zm-7,2.39h5.29a2.45,2.45,0,0,1-.28.33,3,3,0,0,1-2.22.75A3.71,3.71,0,0,1,250.09,233.59Zm-23.6,2.94H218a1.2,1.2,0,0,0-1.2,1.2v5.86a1.2,1.2,0,0,0,1.2,1.2h9.16c.27,0,2.68-.22,2.68-3.86,0-1.79-.34-2.95-1.06-3.65A3,3,0,0,0,226.49,236.53Zm-7.31,2.39h7.31a1.68,1.68,0,0,1,.61.06s.33.37.33,1.93c0,1-.26,1.43-.4,1.47h-7.85v-3.47Z"/><path class="cls-7" d="M259.57,245.07H245.31a2.07,2.07,0,0,0-2.12,2v3.67a2.07,2.07,0,0,0,2.12,2h14.27a2.07,2.07,0,0,0,2.12-2v-3.67A2.07,2.07,0,0,0,259.57,245.07Zm-14,2.39h13.73v2.89H245.57Z"/><path class="cls-7" d="M211.78,217.7a1.2,1.2,0,0,0-1.2,1.2v6a1.2,1.2,0,1,0,2.39,0v-6A1.2,1.2,0,0,0,211.78,217.7Z"/><path class="cls-7" d="M211.78,227.38a1.2,1.2,0,0,0-1.2,1.2v.6a1.2,1.2,0,1,0,2.39,0v-.6A1.2,1.2,0,0,0,211.78,227.38Z"/></g><g id="L1_0-6" data-name="L1 0"><path class="cls-6" d="M602.75,242.79c-7.34,0-10.83-3.89-12.46-7.16a17.5,17.5,0,0,1-1.66-5.69,8.65,8.65,0,0,1-2,3.84,6.2,6.2,0,0,1-1.81,1.33c1.51,1,3,2.89,3,6.33a9.72,9.72,0,0,1-3.16,7.62,11.32,11.32,0,0,1-7.55,2.51h-18a.93.93,0,0,1-.93-.93V216.08a.93.93,0,0,1,.93-.93h18.11a14.62,14.62,0,0,1,6.3,1.49,9.76,9.76,0,0,1,5.39,7.9,13.17,13.17,0,0,1,3.12-6.12c2.47-2.65,6.07-4,10.68-4h.5a17,17,0,0,1,6.9,1.44,8.69,8.69,0,0,1,5.38,8.45.93.93,0,0,1-.93.93h-6.08a.92.92,0,0,1-.93-1,2,2,0,0,0-.69-1.32,5.45,5.45,0,0,0-3.93-1.18h-.21a6,6,0,0,0-2.87.74,4.31,4.31,0,0,0-2,3.42h16.94a.93.93,0,0,1,.92.81c0,.3.92,7.49-3.2,12.19C610.25,241.49,607,242.79,602.75,242.79ZM598,232.39a5,5,0,0,0,4.88,3.47,4.16,4.16,0,0,0,3.07-1.1,4.63,4.63,0,0,0,1.17-2.37Zm-30-1.86h9.14c.28,0,2.71-.13,2.71-3.82,0-2.41-1-3.51-3.23-3.56H568Zm8.51,7.19H568v5.86h9.11c.26,0,1.54-.19,1.54-2.67C578.63,237.72,577.49,237.72,576.49,237.72Z"/><path class="cls-6" d="M595.31,246.27h14.27a.87.87,0,0,1,.93.8v3.67a.87.87,0,0,1-.93.8H595.31a.87.87,0,0,1-.93-.8v-3.67A.87.87,0,0,1,595.31,246.27Z"/><path class="cls-7" d="M603.22,213.22h-.52c-4.94,0-8.82,1.48-11.52,4.38a13.2,13.2,0,0,0-2.11,3,10.86,10.86,0,0,0-5-5.06,15.88,15.88,0,0,0-6.85-1.62H559.12a2.13,2.13,0,0,0-2.12,2.12v34.57a2.13,2.13,0,0,0,2.12,2.12h18a12.49,12.49,0,0,0,8.33-2.8,10.87,10.87,0,0,0,3.57-8.53,8.69,8.69,0,0,0-2.2-6.2,7.59,7.59,0,0,0,.69-.65,8.07,8.07,0,0,0,.72-.87,17.26,17.26,0,0,0,1,2.44c1.78,3.57,5.58,7.82,13.53,7.82,4.58,0,8.16-1.44,10.65-4.27,4.48-5.1,3.53-12.81,3.49-13.13a2.12,2.12,0,0,0-.52-1.14,2.11,2.11,0,0,0,.33-1.14,9.86,9.86,0,0,0-6.07-9.53A18.23,18.23,0,0,0,603.22,213.22Zm-14.29,12.52a1.2,1.2,0,0,0,1.17-.93,11.86,11.86,0,0,1,2.83-5.57c2.24-2.4,5.54-3.62,9.81-3.62h.5a15.76,15.76,0,0,1,6.39,1.32,7.51,7.51,0,0,1,4.7,7.1h-5.56a3.35,3.35,0,0,0-1-1.92,6.55,6.55,0,0,0-4.77-1.54h-.22a7.08,7.08,0,0,0-3.48.91,5.51,5.51,0,0,0-2.6,4.31,1.2,1.2,0,0,0,1.19,1.33h16.7c.12,1.25.48,7.11-2.94,11-2,2.3-5,3.46-8.85,3.46-6.73,0-9.91-3.53-11.39-6.49a16.23,16.23,0,0,1-1.54-5.3,1.2,1.2,0,0,0-2.35-.16,7.39,7.39,0,0,1-1.69,3.32,5,5,0,0,1-1.47,1.08,1.2,1.2,0,0,0-.15,2.07,6,6,0,0,1,2.47,5.34,8.56,8.56,0,0,1-2.75,6.72,10.15,10.15,0,0,1-6.77,2.22H559.39v-34h17.84a13.37,13.37,0,0,1,5.76,1.36,8.54,8.54,0,0,1,4.75,7,1.2,1.2,0,0,0,1.13,1Zm10.47-1a2.73,2.73,0,0,1,1.09-1.2,4.79,4.79,0,0,1,2.25-.57H603a4.52,4.52,0,0,1,3.07.82,1.32,1.32,0,0,1,.35.51,2.12,2.12,0,0,0,0,.43ZM576.6,222H568a1.2,1.2,0,0,0-1.2,1.2v7.38a1.2,1.2,0,0,0,1.2,1.2h9.14c1.46,0,3.91-1.08,3.91-5s-2.39-4.71-4.4-4.76Zm-7.42,2.39h7.41c1.39,0,2.05.4,2.05,2.37,0,2.42-1.17,2.62-1.53,2.62h-7.93v-5Zm37.94,6.85H598a1.2,1.2,0,0,0-1.12,1.61,6.14,6.14,0,0,0,6,4.25,5.3,5.3,0,0,0,3.92-1.45,5.82,5.82,0,0,0,1.49-3,1.2,1.2,0,0,0-1.17-1.42Zm-7,2.39h5.29a2.45,2.45,0,0,1-.28.33,3,3,0,0,1-2.22.75A3.71,3.71,0,0,1,600.09,233.59Zm-23.6,2.94H568a1.2,1.2,0,0,0-1.2,1.2v5.86a1.2,1.2,0,0,0,1.2,1.2h9.16c.27,0,2.68-.22,2.68-3.86,0-1.79-.34-2.95-1.06-3.65A3,3,0,0,0,576.49,236.53Zm-7.31,2.39h7.31a1.68,1.68,0,0,1,.61.06s.33.37.33,1.93c0,1-.26,1.43-.4,1.47h-7.85v-3.47Z"/><path class="cls-7" d="M609.57,245.07H595.31a2.07,2.07,0,0,0-2.12,2v3.67a2.07,2.07,0,0,0,2.12,2h14.27a2.07,2.07,0,0,0,2.12-2v-3.67A2.07,2.07,0,0,0,609.57,245.07Zm-14,2.39h13.73v2.89H595.57Z"/><path class="cls-7" d="M561.78,217.7a1.2,1.2,0,0,0-1.2,1.2v6a1.2,1.2,0,1,0,2.39,0v-6A1.2,1.2,0,0,0,561.78,217.7Z"/><path class="cls-7" d="M561.78,227.38a1.2,1.2,0,0,0-1.2,1.2v.6a1.2,1.2,0,1,0,2.39,0v-.6A1.2,1.2,0,0,0,561.78,227.38Z"/></g><g id="L1_0-7" data-name="L1 0"><path class="cls-6" d="M-97.25-107.21c-7.34,0-10.83-3.89-12.46-7.16a17.5,17.5,0,0,1-1.66-5.69,8.65,8.65,0,0,1-2,3.84,6.2,6.2,0,0,1-1.81,1.33c1.51,1,3,2.89,3,6.33a9.72,9.72,0,0,1-3.16,7.62,11.32,11.32,0,0,1-7.55,2.51h-18a.93.93,0,0,1-.93-.93v-34.57a.93.93,0,0,1,.93-.93h18.11a14.62,14.62,0,0,1,6.3,1.49,9.76,9.76,0,0,1,5.39,7.9,13.17,13.17,0,0,1,3.12-6.12c2.47-2.65,6.07-4,10.68-4h.5a17,17,0,0,1,6.9,1.44,8.69,8.69,0,0,1,5.38,8.45.93.93,0,0,1-.93.93h-6.08a.92.92,0,0,1-.67-.28.92.92,0,0,1-.25-.68,2,2,0,0,0-.69-1.32A5.45,5.45,0,0,0-97-128.24h-.21a6,6,0,0,0-2.87.74,4.31,4.31,0,0,0-2,3.42h16.94a.93.93,0,0,1,.92.81c0,.3.92,7.49-3.2,12.19C-89.75-108.51-93-107.21-97.25-107.21ZM-102-117.61a5,5,0,0,0,4.88,3.47,4.16,4.16,0,0,0,3.07-1.1,4.63,4.63,0,0,0,1.17-2.37Zm-30-1.86h9.14c.28,0,2.71-.13,2.71-3.82,0-2.41-1-3.51-3.23-3.56H-132Zm8.51,7.19H-132v5.86h9.11c.26,0,1.54-.19,1.54-2.67C-121.37-112.28-122.51-112.28-123.51-112.28Z"/><path class="cls-6" d="M-104.69-103.73h14.27a.87.87,0,0,1,.93.8v3.67a.87.87,0,0,1-.93.8h-14.27a.87.87,0,0,1-.93-.8v-3.67A.87.87,0,0,1-104.69-103.73Z"/><path class="cls-7" d="M-96.78-136.78h-.52c-4.94,0-8.82,1.48-11.52,4.38a13.2,13.2,0,0,0-2.11,3,10.86,10.86,0,0,0-5-5.06,15.88,15.88,0,0,0-6.85-1.62h-18.11a2.13,2.13,0,0,0-2.12,2.12v34.57a2.13,2.13,0,0,0,2.12,2.12h18a12.49,12.49,0,0,0,8.33-2.8,10.87,10.87,0,0,0,3.57-8.53,8.69,8.69,0,0,0-2.2-6.2,7.59,7.59,0,0,0,.69-.65,8.07,8.07,0,0,0,.72-.87,17.26,17.26,0,0,0,1,2.44c1.78,3.57,5.58,7.82,13.53,7.82,4.58,0,8.16-1.44,10.65-4.27,4.48-5.1,3.53-12.81,3.49-13.13a2.12,2.12,0,0,0-.52-1.14,2.11,2.11,0,0,0,.33-1.14,9.86,9.86,0,0,0-6.07-9.53A18.23,18.23,0,0,0-96.78-136.78Zm-14.29,12.52a1.2,1.2,0,0,0,1.17-.93,11.86,11.86,0,0,1,2.83-5.57c2.24-2.4,5.54-3.62,9.81-3.62h.5a15.76,15.76,0,0,1,6.39,1.32,7.51,7.51,0,0,1,4.7,7.1h-5.56a3.35,3.35,0,0,0-1-1.92A6.55,6.55,0,0,0-97-129.43h-.22a7.08,7.08,0,0,0-3.48.91,5.51,5.51,0,0,0-2.6,4.31,1.19,1.19,0,0,0,.29.93,1.2,1.2,0,0,0,.89.4h16.7c.12,1.25.48,7.11-2.94,11-2,2.3-5,3.46-8.85,3.46-6.73,0-9.91-3.53-11.39-6.49a16.23,16.23,0,0,1-1.54-5.3,1.2,1.2,0,0,0-1.11-1.05,1.2,1.2,0,0,0-1.24.9,7.39,7.39,0,0,1-1.69,3.32,5,5,0,0,1-1.47,1.08,1.2,1.2,0,0,0-.67,1,1.2,1.2,0,0,0,.53,1.08,6,6,0,0,1,2.47,5.34,8.56,8.56,0,0,1-2.75,6.72,10.15,10.15,0,0,1-6.77,2.22h-17.72v-34h17.84a13.37,13.37,0,0,1,5.76,1.36,8.54,8.54,0,0,1,4.75,7,1.2,1.2,0,0,0,1.13,1Zm10.47-1a2.73,2.73,0,0,1,1.09-1.2,4.79,4.79,0,0,1,2.25-.57H-97a4.52,4.52,0,0,1,3.07.82,1.32,1.32,0,0,1,.35.51,2.12,2.12,0,0,0,0,.43ZM-123.4-128H-132a1.2,1.2,0,0,0-1.2,1.2v7.38a1.2,1.2,0,0,0,1.2,1.2h9.14c1.46,0,3.91-1.08,3.91-5s-2.39-4.71-4.4-4.76Zm-7.42,2.39h7.41c1.39,0,2.05.4,2.05,2.37,0,2.42-1.17,2.62-1.53,2.62h-7.93v-5Zm37.94,6.85H-102a1.19,1.19,0,0,0-1,.51,1.2,1.2,0,0,0-.14,1.1,6.14,6.14,0,0,0,6,4.25,5.3,5.3,0,0,0,3.92-1.45,5.82,5.82,0,0,0,1.49-3,1.19,1.19,0,0,0-.25-1A1.2,1.2,0,0,0-92.88-118.8Zm-7,2.39h5.29a2.45,2.45,0,0,1-.28.33,3,3,0,0,1-2.22.75A3.71,3.71,0,0,1-99.91-116.41Zm-23.6,2.94H-132a1.2,1.2,0,0,0-1.2,1.2v5.86a1.2,1.2,0,0,0,1.2,1.2h9.16c.27,0,2.68-.22,2.68-3.86,0-1.79-.34-2.95-1.06-3.65A3,3,0,0,0-123.51-113.47Zm-7.31,2.39h7.31a1.68,1.68,0,0,1,.61.06s.33.37.33,1.93c0,1-.26,1.43-.4,1.47h-7.85v-3.47Z"/><path class="cls-7" d="M-90.43-104.93h-14.27a2.07,2.07,0,0,0-2.12,2v3.67a2.07,2.07,0,0,0,2.12,2h14.27a2.07,2.07,0,0,0,2.12-2v-3.67A2.07,2.07,0,0,0-90.43-104.93Zm-14,2.39h13.73v2.89h-13.73Z"/><path class="cls-7" d="M-138.22-132.3a1.2,1.2,0,0,0-1.2,1.2v6a1.2,1.2,0,0,0,1.2,1.2,1.2,1.2,0,0,0,1.2-1.2v-6A1.2,1.2,0,0,0-138.22-132.3Z"/><path class="cls-7" d="M-138.22-122.62a1.2,1.2,0,0,0-1.2,1.2v.6a1.2,1.2,0,0,0,1.2,1.2,1.2,1.2,0,0,0,1.2-1.2v-.6A1.2,1.2,0,0,0-138.22-122.62Z"/></g><g id="L1_0-8" data-name="L1 0"><path class="cls-6" d="M252.75-107.21c-7.34,0-10.83-3.89-12.46-7.16a17.5,17.5,0,0,1-1.66-5.69,8.65,8.65,0,0,1-2,3.84,6.2,6.2,0,0,1-1.81,1.33c1.51,1,3,2.89,3,6.33a9.72,9.72,0,0,1-3.16,7.62,11.32,11.32,0,0,1-7.55,2.51h-18a.93.93,0,0,1-.93-.93v-34.57a.93.93,0,0,1,.93-.93h18.11a14.62,14.62,0,0,1,6.3,1.49,9.76,9.76,0,0,1,5.39,7.9,13.17,13.17,0,0,1,3.12-6.12c2.47-2.65,6.07-4,10.68-4h.5a17,17,0,0,1,6.9,1.44,8.69,8.69,0,0,1,5.38,8.45.93.93,0,0,1-.93.93h-6.08a.92.92,0,0,1-.67-.28.92.92,0,0,1-.25-.68,2,2,0,0,0-.69-1.32,5.45,5.45,0,0,0-3.93-1.18h-.21a6,6,0,0,0-2.87.74,4.31,4.31,0,0,0-2,3.42h16.94a.93.93,0,0,1,.92.81c0,.3.92,7.49-3.2,12.19C260.25-108.51,257-107.21,252.75-107.21ZM248-117.61a5,5,0,0,0,4.88,3.47,4.16,4.16,0,0,0,3.07-1.1,4.63,4.63,0,0,0,1.17-2.37Zm-30-1.86h9.14c.28,0,2.71-.13,2.71-3.82,0-2.41-1-3.51-3.23-3.56H218Zm8.51,7.19H218v5.86h9.11c.26,0,1.54-.19,1.54-2.67C228.63-112.28,227.49-112.28,226.49-112.28Z"/><path class="cls-6" d="M245.31-103.73h14.27a.87.87,0,0,1,.93.8v3.67a.87.87,0,0,1-.93.8H245.31a.87.87,0,0,1-.93-.8v-3.67A.87.87,0,0,1,245.31-103.73Z"/><path class="cls-7" d="M253.22-136.78h-.52c-4.94,0-8.82,1.48-11.52,4.38a13.2,13.2,0,0,0-2.11,3,10.86,10.86,0,0,0-5-5.06,15.88,15.88,0,0,0-6.85-1.62H209.12a2.13,2.13,0,0,0-2.12,2.12v34.57a2.13,2.13,0,0,0,2.12,2.12h18a12.49,12.49,0,0,0,8.33-2.8,10.87,10.87,0,0,0,3.57-8.53,8.69,8.69,0,0,0-2.2-6.2,7.59,7.59,0,0,0,.69-.65,8.07,8.07,0,0,0,.72-.87,17.26,17.26,0,0,0,1,2.44c1.78,3.57,5.58,7.82,13.53,7.82,4.58,0,8.16-1.44,10.65-4.27,4.48-5.1,3.53-12.81,3.49-13.13a2.12,2.12,0,0,0-.52-1.14,2.11,2.11,0,0,0,.33-1.14,9.86,9.86,0,0,0-6.07-9.53A18.23,18.23,0,0,0,253.22-136.78Zm-14.29,12.52a1.2,1.2,0,0,0,1.17-.93,11.86,11.86,0,0,1,2.83-5.57c2.24-2.4,5.54-3.62,9.81-3.62h.5a15.76,15.76,0,0,1,6.39,1.32,7.51,7.51,0,0,1,4.7,7.1h-5.56a3.35,3.35,0,0,0-1-1.92,6.55,6.55,0,0,0-4.77-1.54h-.22a7.08,7.08,0,0,0-3.48.91,5.51,5.51,0,0,0-2.6,4.31,1.19,1.19,0,0,0,.29.93,1.2,1.2,0,0,0,.89.4h16.7c.12,1.25.48,7.11-2.94,11-2,2.3-5,3.46-8.85,3.46-6.73,0-9.91-3.53-11.39-6.49a16.23,16.23,0,0,1-1.54-5.3,1.2,1.2,0,0,0-1.11-1.05,1.2,1.2,0,0,0-1.24.9,7.39,7.39,0,0,1-1.69,3.32,5,5,0,0,1-1.47,1.08,1.2,1.2,0,0,0-.67,1,1.2,1.2,0,0,0,.53,1.08,6,6,0,0,1,2.47,5.34,8.56,8.56,0,0,1-2.75,6.72,10.15,10.15,0,0,1-6.77,2.22H209.39v-34h17.84a13.37,13.37,0,0,1,5.76,1.36,8.54,8.54,0,0,1,4.75,7,1.2,1.2,0,0,0,1.13,1Zm10.47-1a2.73,2.73,0,0,1,1.09-1.2,4.79,4.79,0,0,1,2.25-.57H253a4.52,4.52,0,0,1,3.07.82,1.32,1.32,0,0,1,.35.51,2.12,2.12,0,0,0,0,.43ZM226.6-128H218a1.2,1.2,0,0,0-1.2,1.2v7.38a1.2,1.2,0,0,0,1.2,1.2h9.14c1.46,0,3.91-1.08,3.91-5s-2.39-4.71-4.4-4.76Zm-7.42,2.39h7.41c1.39,0,2.05.4,2.05,2.37,0,2.42-1.17,2.62-1.53,2.62h-7.93v-5Zm37.94,6.85H248a1.19,1.19,0,0,0-1,.51,1.2,1.2,0,0,0-.14,1.1,6.14,6.14,0,0,0,6,4.25,5.3,5.3,0,0,0,3.92-1.45,5.82,5.82,0,0,0,1.49-3,1.19,1.19,0,0,0-.25-1A1.2,1.2,0,0,0,257.12-118.8Zm-7,2.39h5.29a2.45,2.45,0,0,1-.28.33,3,3,0,0,1-2.22.75A3.71,3.71,0,0,1,250.09-116.41Zm-23.6,2.94H218a1.2,1.2,0,0,0-1.2,1.2v5.86a1.2,1.2,0,0,0,1.2,1.2h9.16c.27,0,2.68-.22,2.68-3.86,0-1.79-.34-2.95-1.06-3.65A3,3,0,0,0,226.49-113.47Zm-7.31,2.39h7.31a1.68,1.68,0,0,1,.61.06s.33.37.33,1.93c0,1-.26,1.43-.4,1.47h-7.85v-3.47Z"/><path class="cls-7" d="M259.57-104.93H245.31a2.07,2.07,0,0,0-2.12,2v3.67a2.07,2.07,0,0,0,2.12,2h14.27a2.07,2.07,0,0,0,2.12-2v-3.67A2.07,2.07,0,0,0,259.57-104.93Zm-14,2.39h13.73v2.89H245.57Z"/><path class="cls-7" d="M211.78-132.3a1.2,1.2,0,0,0-1.2,1.2v6a1.2,1.2,0,0,0,1.2,1.2,1.2,1.2,0,0,0,1.2-1.2v-6A1.2,1.2,0,0,0,211.78-132.3Z"/><path class="cls-7" d="M211.78-122.62a1.2,1.2,0,0,0-1.2,1.2v.6a1.2,1.2,0,0,0,1.2,1.2,1.2,1.2,0,0,0,1.2-1.2v-.6A1.2,1.2,0,0,0,211.78-122.62Z"/></g><g id="L1_0-9" data-name="L1 0"><path class="cls-6" d="M602.75-107.21c-7.34,0-10.83-3.89-12.46-7.16a17.5,17.5,0,0,1-1.66-5.69,8.65,8.65,0,0,1-2,3.84,6.2,6.2,0,0,1-1.81,1.33c1.51,1,3,2.89,3,6.33a9.72,9.72,0,0,1-3.16,7.62,11.32,11.32,0,0,1-7.55,2.51h-18a.93.93,0,0,1-.93-.93v-34.57a.93.93,0,0,1,.93-.93h18.11a14.62,14.62,0,0,1,6.3,1.49,9.76,9.76,0,0,1,5.39,7.9,13.17,13.17,0,0,1,3.12-6.12c2.47-2.65,6.07-4,10.68-4h.5a17,17,0,0,1,6.9,1.44,8.69,8.69,0,0,1,5.38,8.45.93.93,0,0,1-.93.93h-6.08a.92.92,0,0,1-.67-.28.92.92,0,0,1-.25-.68,2,2,0,0,0-.69-1.32,5.45,5.45,0,0,0-3.93-1.18h-.21a6,6,0,0,0-2.87.74,4.31,4.31,0,0,0-2,3.42h16.94a.93.93,0,0,1,.92.81c0,.3.92,7.49-3.2,12.19C610.25-108.51,607-107.21,602.75-107.21ZM598-117.61a5,5,0,0,0,4.88,3.47,4.16,4.16,0,0,0,3.07-1.1,4.63,4.63,0,0,0,1.17-2.37Zm-30-1.86h9.14c.28,0,2.71-.13,2.71-3.82,0-2.41-1-3.51-3.23-3.56H568Zm8.51,7.19H568v5.86h9.11c.26,0,1.54-.19,1.54-2.67C578.63-112.28,577.49-112.28,576.49-112.28Z"/><path class="cls-6" d="M595.31-103.73h14.27a.87.87,0,0,1,.93.8v3.67a.87.87,0,0,1-.93.8H595.31a.87.87,0,0,1-.93-.8v-3.67A.87.87,0,0,1,595.31-103.73Z"/><path class="cls-7" d="M603.22-136.78h-.52c-4.94,0-8.82,1.48-11.52,4.38a13.2,13.2,0,0,0-2.11,3,10.86,10.86,0,0,0-5-5.06,15.88,15.88,0,0,0-6.85-1.62H559.12a2.13,2.13,0,0,0-2.12,2.12v34.57a2.13,2.13,0,0,0,2.12,2.12h18a12.49,12.49,0,0,0,8.33-2.8,10.87,10.87,0,0,0,3.57-8.53,8.69,8.69,0,0,0-2.2-6.2,7.59,7.59,0,0,0,.69-.65,8.07,8.07,0,0,0,.72-.87,17.26,17.26,0,0,0,1,2.44c1.78,3.57,5.58,7.82,13.53,7.82,4.58,0,8.16-1.44,10.65-4.27,4.48-5.1,3.53-12.81,3.49-13.13a2.12,2.12,0,0,0-.52-1.14,2.11,2.11,0,0,0,.33-1.14,9.86,9.86,0,0,0-6.07-9.53A18.23,18.23,0,0,0,603.22-136.78Zm-14.29,12.52a1.2,1.2,0,0,0,1.17-.93,11.86,11.86,0,0,1,2.83-5.57c2.24-2.4,5.54-3.62,9.81-3.62h.5a15.76,15.76,0,0,1,6.39,1.32,7.51,7.51,0,0,1,4.7,7.1h-5.56a3.35,3.35,0,0,0-1-1.92,6.55,6.55,0,0,0-4.77-1.54h-.22a7.08,7.08,0,0,0-3.48.91,5.51,5.51,0,0,0-2.6,4.31,1.19,1.19,0,0,0,.29.93,1.2,1.2,0,0,0,.89.4h16.7c.12,1.25.48,7.11-2.94,11-2,2.3-5,3.46-8.85,3.46-6.73,0-9.91-3.53-11.39-6.49a16.23,16.23,0,0,1-1.54-5.3,1.2,1.2,0,0,0-1.11-1.05,1.2,1.2,0,0,0-1.24.9,7.39,7.39,0,0,1-1.69,3.32,5,5,0,0,1-1.47,1.08,1.2,1.2,0,0,0-.67,1,1.2,1.2,0,0,0,.53,1.08,6,6,0,0,1,2.47,5.34,8.56,8.56,0,0,1-2.75,6.72,10.15,10.15,0,0,1-6.77,2.22H559.39v-34h17.84a13.37,13.37,0,0,1,5.76,1.36,8.54,8.54,0,0,1,4.75,7,1.2,1.2,0,0,0,1.13,1Zm10.47-1a2.73,2.73,0,0,1,1.09-1.2,4.79,4.79,0,0,1,2.25-.57H603a4.52,4.52,0,0,1,3.07.82,1.32,1.32,0,0,1,.35.51,2.12,2.12,0,0,0,0,.43ZM576.6-128H568a1.2,1.2,0,0,0-1.2,1.2v7.38a1.2,1.2,0,0,0,1.2,1.2h9.14c1.46,0,3.91-1.08,3.91-5s-2.39-4.71-4.4-4.76Zm-7.42,2.39h7.41c1.39,0,2.05.4,2.05,2.37,0,2.42-1.17,2.62-1.53,2.62h-7.93v-5Zm37.94,6.85H598a1.19,1.19,0,0,0-1,.51,1.2,1.2,0,0,0-.14,1.1,6.14,6.14,0,0,0,6,4.25,5.3,5.3,0,0,0,3.92-1.45,5.82,5.82,0,0,0,1.49-3,1.19,1.19,0,0,0-.25-1A1.2,1.2,0,0,0,607.12-118.8Zm-7,2.39h5.29a2.45,2.45,0,0,1-.28.33,3,3,0,0,1-2.22.75A3.71,3.71,0,0,1,600.09-116.41Zm-23.6,2.94H568a1.2,1.2,0,0,0-1.2,1.2v5.86a1.2,1.2,0,0,0,1.2,1.2h9.16c.27,0,2.68-.22,2.68-3.86,0-1.79-.34-2.95-1.06-3.65A3,3,0,0,0,576.49-113.47Zm-7.31,2.39h7.31a1.68,1.68,0,0,1,.61.06s.33.37.33,1.93c0,1-.26,1.43-.4,1.47h-7.85v-3.47Z"/><path class="cls-7" d="M609.57-104.93H595.31a2.07,2.07,0,0,0-2.12,2v3.67a2.07,2.07,0,0,0,2.12,2h14.27a2.07,2.07,0,0,0,2.12-2v-3.67A2.07,2.07,0,0,0,609.57-104.93Zm-14,2.39h13.73v2.89H595.57Z"/><path class="cls-7" d="M561.78-132.3a1.2,1.2,0,0,0-1.2,1.2v6a1.2,1.2,0,0,0,1.2,1.2,1.2,1.2,0,0,0,1.2-1.2v-6A1.2,1.2,0,0,0,561.78-132.3Z"/><path class="cls-7" d="M561.78-122.62a1.2,1.2,0,0,0-1.2,1.2v.6a1.2,1.2,0,0,0,1.2,1.2,1.2,1.2,0,0,0,1.2-1.2v-.6A1.2,1.2,0,0,0,561.78-122.62Z"/></g></pattern><pattern id="pattern_L1_4" data-name="pattern L1 4" width="350" height="350" patternTransform="matrix(1.59, 0, 0, -1.59, 785.06, 2085.2)" patternUnits="userSpaceOnUse" viewBox="0 0 350 350"><rect class="cls-1" width="350" height="350"/><g id="L1_1" data-name="L1 1"><path class="cls-3" d="M-300.22,503V487a12.25,12.25,0,0,0-12.24-12.24h-33.06A12.25,12.25,0,0,0-357.78,487V503a12.25,12.25,0,0,0,12.24,12.24h33.06A12.25,12.25,0,0,0-300.22,503Z"/><g id="_Grupo_" data-name="&lt;Grupo&gt;"><path class="cls-4" d="M-319.82,495l-14.69-6.12v12.24Z"/><path class="cls-5" d="M-312.47,516.43h-33.06A13.48,13.48,0,0,1-359,503V487a13.48,13.48,0,0,1,13.47-13.47h33.06A13.48,13.48,0,0,1-299,487V503A13.48,13.48,0,0,1-312.47,516.43Zm11-29.39a11,11,0,0,0-11-11h-33.06a11,11,0,0,0-11,11V503a11,11,0,0,0,11,11h33.06a11,11,0,0,0,11-11Z"/><path class="cls-5" d="M-319.35,496.13-334,502.25a1.22,1.22,0,0,1-1.15-.11,1.22,1.22,0,0,1-.55-1V488.88a1.22,1.22,0,0,1,.55-1,1.22,1.22,0,0,1,.68-.21,1.22,1.22,0,0,1,.47.09l14.69,6.12a1.22,1.22,0,0,1,.75,1.13A1.22,1.22,0,0,1-319.35,496.13Zm-13.94-5.42v8.57L-323,495Z"/></g></g><g id="L1_1-2" data-name="L1 1"><path class="cls-3" d="M49.78,503V487A12.25,12.25,0,0,0,37.53,474.8H4.47A12.25,12.25,0,0,0-7.78,487V503A12.25,12.25,0,0,0,4.47,515.2H37.53A12.25,12.25,0,0,0,49.78,503Z"/><g id="_Grupo_2" data-name="&lt;Grupo&gt;"><path class="cls-4" d="M30.18,495l-14.69-6.12v12.24Z"/><path class="cls-5" d="M37.53,516.43H4.47A13.48,13.48,0,0,1-9,503V487A13.48,13.48,0,0,1,4.47,473.57H37.53A13.48,13.48,0,0,1,51,487V503A13.48,13.48,0,0,1,37.53,516.43Zm11-29.39a11,11,0,0,0-11-11H4.47a11,11,0,0,0-11,11V503a11,11,0,0,0,11,11H37.53a11,11,0,0,0,11-11Z"/><path class="cls-5" d="M30.65,496.13,16,502.25a1.22,1.22,0,0,1-1.7-1.13V488.88a1.22,1.22,0,0,1,1.7-1.13l14.69,6.12a1.22,1.22,0,0,1,0,2.26Zm-13.94-5.42v8.57L27,495Z"/></g></g><g id="L1_1-3" data-name="L1 1"><path class="cls-3" d="M399.78,503V487a12.25,12.25,0,0,0-12.24-12.24H354.47A12.25,12.25,0,0,0,342.22,487V503a12.25,12.25,0,0,0,12.24,12.24h33.06A12.25,12.25,0,0,0,399.78,503Z"/><g id="_Grupo_3" data-name="&lt;Grupo&gt;"><path class="cls-4" d="M380.18,495l-14.69-6.12v12.24Z"/><path class="cls-5" d="M387.53,516.43H354.47A13.48,13.48,0,0,1,341,503V487a13.48,13.48,0,0,1,13.47-13.47h33.06A13.48,13.48,0,0,1,401,487V503A13.48,13.48,0,0,1,387.53,516.43Zm11-29.39a11,11,0,0,0-11-11H354.47a11,11,0,0,0-11,11V503a11,11,0,0,0,11,11h33.06a11,11,0,0,0,11-11Z"/><path class="cls-5" d="M380.65,496.13,366,502.25a1.22,1.22,0,0,1-1.7-1.13V488.88a1.22,1.22,0,0,1,1.7-1.13l14.69,6.12a1.22,1.22,0,0,1,0,2.26Zm-13.94-5.42v8.57L377,495Z"/></g></g><g id="L1_1-4" data-name="L1 1"><path class="cls-3" d="M-300.22,153V137a12.25,12.25,0,0,0-12.24-12.24h-33.06A12.25,12.25,0,0,0-357.78,137V153a12.25,12.25,0,0,0,12.24,12.24h33.06A12.25,12.25,0,0,0-300.22,153Z"/><g id="_Grupo_4" data-name="&lt;Grupo&gt;"><path class="cls-4" d="M-319.82,145l-14.69-6.12v12.24Z"/><path class="cls-5" d="M-312.47,166.43h-33.06A13.48,13.48,0,0,1-359,153V137a13.48,13.48,0,0,1,13.47-13.47h33.06A13.48,13.48,0,0,1-299,137V153A13.48,13.48,0,0,1-312.47,166.43Zm11-29.39a11,11,0,0,0-11-11h-33.06a11,11,0,0,0-11,11V153a11,11,0,0,0,11,11h33.06a11,11,0,0,0,11-11Z"/><path class="cls-5" d="M-319.35,146.13-334,152.25a1.22,1.22,0,0,1-1.15-.11,1.22,1.22,0,0,1-.55-1V138.88a1.22,1.22,0,0,1,.55-1,1.22,1.22,0,0,1,.68-.21,1.22,1.22,0,0,1,.47.09l14.69,6.12a1.22,1.22,0,0,1,.75,1.13A1.22,1.22,0,0,1-319.35,146.13Zm-13.94-5.42v8.57L-323,145Z"/></g></g><g id="L1_1-5" data-name="L1 1"><path class="cls-3" d="M49.78,153V137A12.25,12.25,0,0,0,37.53,124.8H4.47A12.25,12.25,0,0,0-7.78,137V153A12.25,12.25,0,0,0,4.47,165.2H37.53A12.25,12.25,0,0,0,49.78,153Z"/><g id="_Grupo_5" data-name="&lt;Grupo&gt;"><path class="cls-4" d="M30.18,145l-14.69-6.12v12.24Z"/><path class="cls-5" d="M37.53,166.43H4.47A13.48,13.48,0,0,1-9,153V137A13.48,13.48,0,0,1,4.47,123.57H37.53A13.48,13.48,0,0,1,51,137V153A13.48,13.48,0,0,1,37.53,166.43Zm11-29.39a11,11,0,0,0-11-11H4.47a11,11,0,0,0-11,11V153a11,11,0,0,0,11,11H37.53a11,11,0,0,0,11-11Z"/><path class="cls-5" d="M30.65,146.13,16,152.25a1.22,1.22,0,0,1-1.7-1.13V138.88a1.22,1.22,0,0,1,1.7-1.13l14.69,6.12a1.22,1.22,0,0,1,0,2.26Zm-13.94-5.42v8.57L27,145Z"/></g></g><g id="L1_1-6" data-name="L1 1"><path class="cls-3" d="M399.78,153V137a12.25,12.25,0,0,0-12.24-12.24H354.47A12.25,12.25,0,0,0,342.22,137V153a12.25,12.25,0,0,0,12.24,12.24h33.06A12.25,12.25,0,0,0,399.78,153Z"/><g id="_Grupo_6" data-name="&lt;Grupo&gt;"><path class="cls-4" d="M380.18,145l-14.69-6.12v12.24Z"/><path class="cls-5" d="M387.53,166.43H354.47A13.48,13.48,0,0,1,341,153V137a13.48,13.48,0,0,1,13.47-13.47h33.06A13.48,13.48,0,0,1,401,137V153A13.48,13.48,0,0,1,387.53,166.43Zm11-29.39a11,11,0,0,0-11-11H354.47a11,11,0,0,0-11,11V153a11,11,0,0,0,11,11h33.06a11,11,0,0,0,11-11Z"/><path class="cls-5" d="M380.65,146.13,366,152.25a1.22,1.22,0,0,1-1.7-1.13V138.88a1.22,1.22,0,0,1,1.7-1.13l14.69,6.12a1.22,1.22,0,0,1,0,2.26Zm-13.94-5.42v8.57L377,145Z"/></g></g><g id="L1_1-7" data-name="L1 1"><path class="cls-3" d="M-300.22-197V-213a12.25,12.25,0,0,0-12.24-12.24h-33.06A12.25,12.25,0,0,0-357.78-213V-197a12.25,12.25,0,0,0,12.24,12.24h33.06A12.25,12.25,0,0,0-300.22-197Z"/><g id="_Grupo_7" data-name="&lt;Grupo&gt;"><path class="cls-4" d="M-319.82-205l-14.69-6.12v12.24Z"/><path class="cls-5" d="M-312.47-183.57h-33.06A13.48,13.48,0,0,1-359-197V-213a13.48,13.48,0,0,1,13.47-13.47h33.06A13.48,13.48,0,0,1-299-213V-197A13.48,13.48,0,0,1-312.47-183.57Zm11-29.39a11,11,0,0,0-11-11h-33.06a11,11,0,0,0-11,11V-197a11,11,0,0,0,11,11h33.06a11,11,0,0,0,11-11Z"/><path class="cls-5" d="M-319.35-203.87-334-197.75a1.22,1.22,0,0,1-1.15-.11,1.22,1.22,0,0,1-.55-1v-12.24a1.22,1.22,0,0,1,.55-1,1.22,1.22,0,0,1,.68-.21,1.22,1.22,0,0,1,.47.09l14.69,6.12a1.22,1.22,0,0,1,.75,1.13A1.22,1.22,0,0,1-319.35-203.87Zm-13.94-5.42v8.57L-323-205Z"/></g></g><g id="L1_1-8" data-name="L1 1"><path class="cls-3" d="M49.78-197V-213A12.25,12.25,0,0,0,37.53-225.2H4.47A12.25,12.25,0,0,0-7.78-213V-197A12.25,12.25,0,0,0,4.47-184.8H37.53A12.25,12.25,0,0,0,49.78-197Z"/><g id="_Grupo_8" data-name="&lt;Grupo&gt;"><path class="cls-4" d="M30.18-205l-14.69-6.12v12.24Z"/><path class="cls-5" d="M37.53-183.57H4.47A13.48,13.48,0,0,1-9-197V-213A13.48,13.48,0,0,1,4.47-226.43H37.53A13.48,13.48,0,0,1,51-213V-197A13.48,13.48,0,0,1,37.53-183.57Zm11-29.39a11,11,0,0,0-11-11H4.47a11,11,0,0,0-11,11V-197a11,11,0,0,0,11,11H37.53a11,11,0,0,0,11-11Z"/><path class="cls-5" d="M30.65-203.87,16-197.75a1.22,1.22,0,0,1-1.15-.11,1.22,1.22,0,0,1-.55-1v-12.24a1.22,1.22,0,0,1,.55-1,1.22,1.22,0,0,1,.68-.21,1.22,1.22,0,0,1,.47.09l14.69,6.12a1.22,1.22,0,0,1,.75,1.13A1.22,1.22,0,0,1,30.65-203.87Zm-13.94-5.42v8.57L27-205Z"/></g></g><g id="L1_1-9" data-name="L1 1"><path class="cls-3" d="M399.78-197V-213a12.25,12.25,0,0,0-12.24-12.24H354.47A12.25,12.25,0,0,0,342.22-213V-197a12.25,12.25,0,0,0,12.24,12.24h33.06A12.25,12.25,0,0,0,399.78-197Z"/><g id="_Grupo_9" data-name="&lt;Grupo&gt;"><path class="cls-4" d="M380.18-205l-14.69-6.12v12.24Z"/><path class="cls-5" d="M387.53-183.57H354.47A13.48,13.48,0,0,1,341-197V-213a13.48,13.48,0,0,1,13.47-13.47h33.06A13.48,13.48,0,0,1,401-213V-197A13.48,13.48,0,0,1,387.53-183.57Zm11-29.39a11,11,0,0,0-11-11H354.47a11,11,0,0,0-11,11V-197a11,11,0,0,0,11,11h33.06a11,11,0,0,0,11-11Z"/><path class="cls-5" d="M380.65-203.87,366-197.75a1.22,1.22,0,0,1-1.15-.11,1.22,1.22,0,0,1-.55-1v-12.24a1.22,1.22,0,0,1,.55-1,1.22,1.22,0,0,1,.68-.21,1.22,1.22,0,0,1,.47.09l14.69,6.12a1.22,1.22,0,0,1,.75,1.13A1.22,1.22,0,0,1,380.65-203.87Zm-13.94-5.42v8.57L377-205Z"/></g></g></pattern><pattern id="pattern_L1_2" data-name="pattern L1 2" width="350" height="350" patternTransform="matrix(1.59, 0, 0, -1.59, 785.06, 2085.2)" patternUnits="userSpaceOnUse" viewBox="0 0 350 350"><rect class="cls-1" width="350" height="350"/><path id="L1_2" data-name="L1 2" class="cls-2" d="M-257,696a9,9,0,0,1-9-9,9,9,0,0,1,9-9,9,9,0,0,1,9,9A9,9,0,0,1-257,696Zm24,9h-7.2a2.67,2.67,0,0,0-2.37,1.71l-1.86,5.59A2.67,2.67,0,0,1-246.8,714h-20.4a2.67,2.67,0,0,1-2.37-1.71l-1.86-5.59A2.67,2.67,0,0,0-273.8,705H-281a6,6,0,0,1-6-6V672a6,6,0,0,1,6-6h48a6,6,0,0,1,6,6v27A6,6,0,0,1-233,705Zm-24-33a15,15,0,0,0-15,15,15,15,0,0,0,15,15,15,15,0,0,0,15-15A15,15,0,0,0-257,672Zm21.9,22.8a2.1,2.1,0,0,0-2.1,2.1,2.1,2.1,0,0,0,2.1,2.1,2.1,2.1,0,0,0,2.1-2.1A2.1,2.1,0,0,0-235.1,694.8Z"/><path id="L1_2-2" data-name="L1 2" class="cls-2" d="M93,696a9,9,0,1,1,9-9A9,9,0,0,1,93,696Zm24,9h-7.2a2.67,2.67,0,0,0-2.37,1.71l-1.86,5.59A2.67,2.67,0,0,1,103.2,714H82.8a2.67,2.67,0,0,1-2.37-1.71l-1.86-5.59A2.67,2.67,0,0,0,76.2,705H69a6,6,0,0,1-6-6V672a6,6,0,0,1,6-6h48a6,6,0,0,1,6,6v27A6,6,0,0,1,117,705ZM93,672a15,15,0,1,0,15,15A15,15,0,0,0,93,672Zm21.9,22.8a2.1,2.1,0,1,0,2.1,2.1A2.1,2.1,0,0,0,114.9,694.8Z"/><path id="L1_2-3" data-name="L1 2" class="cls-2" d="M443,696a9,9,0,1,1,9-9A9,9,0,0,1,443,696Zm24,9h-7.2a2.67,2.67,0,0,0-2.37,1.71l-1.86,5.59A2.67,2.67,0,0,1,453.2,714H432.8a2.67,2.67,0,0,1-2.37-1.71l-1.86-5.59A2.67,2.67,0,0,0,426.2,705H419a6,6,0,0,1-6-6V672a6,6,0,0,1,6-6h48a6,6,0,0,1,6,6v27A6,6,0,0,1,467,705Zm-24-33a15,15,0,1,0,15,15A15,15,0,0,0,443,672Zm21.9,22.8a2.1,2.1,0,1,0,2.1,2.1A2.1,2.1,0,0,0,464.9,694.8Z"/><path id="L1_2-4" data-name="L1 2" class="cls-2" d="M-257,346a9,9,0,0,1-9-9,9,9,0,0,1,9-9,9,9,0,0,1,9,9A9,9,0,0,1-257,346Zm24,9h-7.2a2.67,2.67,0,0,0-2.37,1.71l-1.86,5.59A2.67,2.67,0,0,1-246.8,364h-20.4a2.67,2.67,0,0,1-2.37-1.71l-1.86-5.59A2.67,2.67,0,0,0-273.8,355H-281a6,6,0,0,1-6-6V322a6,6,0,0,1,6-6h48a6,6,0,0,1,6,6v27A6,6,0,0,1-233,355Zm-24-33a15,15,0,0,0-15,15,15,15,0,0,0,15,15,15,15,0,0,0,15-15A15,15,0,0,0-257,322Zm21.9,22.8a2.1,2.1,0,0,0-2.1,2.1,2.1,2.1,0,0,0,2.1,2.1,2.1,2.1,0,0,0,2.1-2.1A2.1,2.1,0,0,0-235.1,344.8Z"/><path id="L1_2-5" data-name="L1 2" class="cls-2" d="M93,346a9,9,0,1,1,9-9A9,9,0,0,1,93,346Zm24,9h-7.2a2.67,2.67,0,0,0-2.37,1.71l-1.86,5.59A2.67,2.67,0,0,1,103.2,364H82.8a2.67,2.67,0,0,1-2.37-1.71l-1.86-5.59A2.67,2.67,0,0,0,76.2,355H69a6,6,0,0,1-6-6V322a6,6,0,0,1,6-6h48a6,6,0,0,1,6,6v27A6,6,0,0,1,117,355ZM93,322a15,15,0,1,0,15,15A15,15,0,0,0,93,322Zm21.9,22.8a2.1,2.1,0,1,0,2.1,2.1A2.1,2.1,0,0,0,114.9,344.8Z"/><path id="L1_2-6" data-name="L1 2" class="cls-2" d="M443,346a9,9,0,1,1,9-9A9,9,0,0,1,443,346Zm24,9h-7.2a2.67,2.67,0,0,0-2.37,1.71l-1.86,5.59A2.67,2.67,0,0,1,453.2,364H432.8a2.67,2.67,0,0,1-2.37-1.71l-1.86-5.59A2.67,2.67,0,0,0,426.2,355H419a6,6,0,0,1-6-6V322a6,6,0,0,1,6-6h48a6,6,0,0,1,6,6v27A6,6,0,0,1,467,355Zm-24-33a15,15,0,1,0,15,15A15,15,0,0,0,443,322Zm21.9,22.8a2.1,2.1,0,1,0,2.1,2.1A2.1,2.1,0,0,0,464.9,344.8Z"/><path id="L1_2-7" data-name="L1 2" class="cls-2" d="M-257-4a9,9,0,0,1-9-9,9,9,0,0,1,9-9,9,9,0,0,1,9,9A9,9,0,0,1-257-4Zm24,9h-7.2a2.67,2.67,0,0,0-2.37,1.71l-1.86,5.59A2.67,2.67,0,0,1-246.8,14h-20.4a2.67,2.67,0,0,1-2.37-1.71l-1.86-5.59A2.67,2.67,0,0,0-273.8,5H-281a6,6,0,0,1-6-6V-28a6,6,0,0,1,6-6h48a6,6,0,0,1,6,6V-1A6,6,0,0,1-233,5Zm-24-33a15,15,0,0,0-15,15A15,15,0,0,0-257,2a15,15,0,0,0,15-15A15,15,0,0,0-257-28Zm21.9,22.8a2.1,2.1,0,0,0-2.1,2.1A2.1,2.1,0,0,0-235.1-1,2.1,2.1,0,0,0-233-3.1,2.1,2.1,0,0,0-235.1-5.2Z"/><path id="L1_2-8" data-name="L1 2" class="cls-2" d="M93-4a9,9,0,0,1-9-9,9,9,0,0,1,9-9,9,9,0,0,1,9,9A9,9,0,0,1,93-4Zm24,9h-7.2a2.67,2.67,0,0,0-2.37,1.71l-1.86,5.59A2.67,2.67,0,0,1,103.2,14H82.8a2.67,2.67,0,0,1-2.37-1.71L78.57,6.71A2.67,2.67,0,0,0,76.2,5H69a6,6,0,0,1-6-6V-28a6,6,0,0,1,6-6h48a6,6,0,0,1,6,6V-1A6,6,0,0,1,117,5ZM93-28A15,15,0,0,0,78-13,15,15,0,0,0,93,2a15,15,0,0,0,15-15A15,15,0,0,0,93-28ZM114.9-5.2a2.1,2.1,0,0,0-2.1,2.1A2.1,2.1,0,0,0,114.9-1,2.1,2.1,0,0,0,117-3.1,2.1,2.1,0,0,0,114.9-5.2Z"/><path id="L1_2-9" data-name="L1 2" class="cls-2" d="M443-4a9,9,0,0,1-9-9,9,9,0,0,1,9-9,9,9,0,0,1,9,9A9,9,0,0,1,443-4Zm24,9h-7.2a2.67,2.67,0,0,0-2.37,1.71l-1.86,5.59A2.67,2.67,0,0,1,453.2,14H432.8a2.67,2.67,0,0,1-2.37-1.71l-1.86-5.59A2.67,2.67,0,0,0,426.2,5H419a6,6,0,0,1-6-6V-28a6,6,0,0,1,6-6h48a6,6,0,0,1,6,6V-1A6,6,0,0,1,467,5ZM443-28a15,15,0,0,0-15,15A15,15,0,0,0,443,2a15,15,0,0,0,15-15A15,15,0,0,0,443-28ZM464.9-5.2a2.1,2.1,0,0,0-2.1,2.1A2.1,2.1,0,0,0,464.9-1,2.1,2.1,0,0,0,467-3.1,2.1,2.1,0,0,0,464.9-5.2Z"/></pattern></defs><title>Ativo 4 dv</title><g id="Camada_2" data-name="Camada 2"><g id="Camada_1-2" data-name="Camada 1"><g class="cls-8"><rect class="cls-9" width="2870" height="1435"/><rect class="cls-10" width="2870" height="1435"/><rect class="cls-11" width="2870" height="1435"/></g></g></g></svg>