<svg xmlns="http://www.w3.org/2000/svg" viewBox="0 0 2884 1804"><defs><style>.cls-1{fill:#352884;stroke:#6b0b0c;stroke-linecap:round;stroke-linejoin:round;stroke-width:2px;}.cls-2{fill:#ebf2fa;opacity:0.2;}.cls-3{opacity:0.7;}.cls-4{fill:#fecb5b;}</style></defs><title>Ativo 5 dv</title><g id="Camada_2" data-name="Camada 2"><g id="Camada_5" data-name="Camada 5"><rect class="cls-1" x="1" y="1" width="2882" height="1802"/><circle class="cls-2" cx="185.25" cy="159.55" r="7.94"/><path class="cls-2" d="M339.05,179.39H282.64c-2.29-2.53-6-8.2-.92-13.89h23.6a6.95,6.95,0,0,0,0-13.89H208.07a6.95,6.95,0,1,0,0,13.89h45.47c1.48,1.71,5.56,7.45.42,13.89H241.81a6.95,6.95,0,1,0,0,13.89h97.24a6.95,6.95,0,1,0,0-13.89Z"/><circle class="cls-2" cx="2564.25" cy="1055.55" r="7.94"/><path class="cls-2" d="M2718.05,1075.39h-56.41c-2.29-2.53-6-8.2-.92-13.89h23.6a6.95,6.95,0,0,0,0-13.89h-97.24a6.95,6.95,0,0,0,0,13.89h45.47c1.48,1.71,5.56,7.45.42,13.89h-12.16a6.95,6.95,0,0,0,0,13.89h97.24a6.95,6.95,0,0,0,0-13.89Z"/><circle class="cls-2" cx="2588.25" cy="156.55" r="7.94"/><path class="cls-2" d="M2742.05,176.39h-56.41c-2.29-2.53-6-8.2-.92-13.89h23.6a6.95,6.95,0,0,0,0-13.89h-97.24a6.95,6.95,0,0,0,0,13.89h45.47c1.48,1.71,5.56,7.45.42,13.89h-12.16a6.95,6.95,0,0,0,0,13.89h97.24a6.95,6.95,0,0,0,0-13.89Z"/><circle class="cls-2" cx="143.25" cy="1250.55" r="7.94"/><path class="cls-2" d="M297.05,1270.39H240.64c-2.29-2.53-6-8.2-.92-13.89h23.6a6.95,6.95,0,0,0,0-13.89H166.07a6.95,6.95,0,0,0,0,13.89h45.47c1.48,1.71,5.56,7.45.42,13.89H199.81a6.95,6.95,0,0,0,0,13.89h97.24a6.95,6.95,0,0,0,0-13.89Z"/><circle class="cls-2" cx="148.25" cy="1661.55" r="7.94"/><path class="cls-2" d="M302.05,1681.39H245.64c-2.29-2.53-6-8.2-.92-13.89h23.6a6.95,6.95,0,0,0,0-13.89H171.07a6.95,6.95,0,0,0,0,13.89h45.47c1.48,1.71,5.56,7.45.42,13.89H204.81a6.95,6.95,0,0,0,0,13.89h97.24a6.95,6.95,0,0,0,0-13.89Z"/><circle class="cls-2" cx="1192.25" cy="1391.55" r="7.94"/><path class="cls-2" d="M1346.05,1411.39h-56.41c-2.29-2.53-6-8.2-.92-13.89h23.6a6.95,6.95,0,0,0,0-13.89h-97.24a6.95,6.95,0,0,0,0,13.89h45.47c1.48,1.71,5.56,7.45.42,13.89h-12.16a6.95,6.95,0,0,0,0,13.89h97.24a6.95,6.95,0,0,0,0-13.89Z"/><circle class="cls-2" cx="2334.25" cy="1391.55" r="7.94"/><path class="cls-2" d="M2488.05,1411.39h-56.41c-2.29-2.53-6-8.2-.92-13.89h23.6a6.95,6.95,0,0,0,0-13.89h-97.24a6.95,6.95,0,0,0,0,13.89h45.47c1.48,1.71,5.56,7.45.42,13.89h-12.16a6.95,6.95,0,0,0,0,13.89h97.24a6.95,6.95,0,0,0,0-13.89Z"/><circle class="cls-2" cx="1892.25" cy="88.55" r="7.94"/><path class="cls-2" d="M2046.05,108.39h-56.41c-2.29-2.53-6-8.2-.92-13.89h23.6a6.95,6.95,0,0,0,0-13.89h-97.24a6.95,6.95,0,0,0,0,13.89h45.47c1.48,1.71,5.56,7.45.42,13.89h-12.16a6.95,6.95,0,0,0,0,13.89h97.24a6.95,6.95,0,0,0,0-13.89Z"/><circle class="cls-2" cx="711.25" cy="215.55" r="7.94"/><path class="cls-2" d="M865.05,235.39H808.64c-2.29-2.53-6-8.2-.92-13.89h23.6a6.95,6.95,0,0,0,0-13.89H734.07a6.95,6.95,0,1,0,0,13.89h45.47c1.48,1.71,5.56,7.45.42,13.89H767.81a6.95,6.95,0,1,0,0,13.89h97.24a6.95,6.95,0,1,0,0-13.89Z"/><circle class="cls-2" cx="79.25" cy="593.55" r="7.94"/><path class="cls-2" d="M233.05,613.39H176.64c-2.29-2.53-6-8.2-.92-13.89h23.6a6.95,6.95,0,0,0,0-13.89H102.07a6.95,6.95,0,1,0,0,13.89h45.47c1.48,1.71,5.56,7.45.42,13.89H135.81a6.95,6.95,0,1,0,0,13.89h97.24a6.95,6.95,0,1,0,0-13.89Z"/><circle class="cls-2" cx="848.25" cy="752.55" r="7.94"/><path class="cls-2" d="M1002.05,772.39H945.64c-2.29-2.53-6-8.2-.92-13.89h23.6a6.95,6.95,0,0,0,0-13.89H871.07a6.95,6.95,0,1,0,0,13.89h45.47c1.48,1.71,5.56,7.45.42,13.89H904.81a6.95,6.95,0,1,0,0,13.89h97.24a6.95,6.95,0,0,0,0-13.89Z"/><circle class="cls-2" cx="1475.25" cy="427.55" r="7.94"/><path class="cls-2" d="M1629.05,447.39h-56.41c-2.29-2.53-6-8.2-.92-13.89h23.6a6.95,6.95,0,0,0,0-13.89h-97.24a6.95,6.95,0,0,0,0,13.89h45.47c1.48,1.71,5.56,7.45.42,13.89h-12.16a6.95,6.95,0,0,0,0,13.89h97.24a6.95,6.95,0,0,0,0-13.89Z"/><circle class="cls-2" cx="2434.25" cy="498.55" r="7.94"/><path class="cls-2" d="M2588.05,518.39h-56.41c-2.29-2.53-6-8.2-.92-13.89h23.6a6.95,6.95,0,0,0,0-13.89h-97.24a6.95,6.95,0,0,0,0,13.89h45.47c1.48,1.71,5.56,7.45.42,13.89h-12.16a6.95,6.95,0,0,0,0,13.89h97.24a6.95,6.95,0,0,0,0-13.89Z"/><circle class="cls-2" cx="1057.25" cy="1735.55" r="7.94"/><path class="cls-2" d="M1211.05,1755.39h-56.41c-2.29-2.53-6-8.2-.92-13.89h23.6a6.95,6.95,0,0,0,0-13.89h-97.24a6.95,6.95,0,0,0,0,13.89h45.47c1.48,1.71,5.56,7.45.42,13.89h-12.16a6.95,6.95,0,0,0,0,13.89h97.24a6.95,6.95,0,0,0,0-13.89Z"/><circle class="cls-2" cx="2595.25" cy="1658.55" r="7.94"/><path class="cls-2" d="M2749.05,1678.39h-56.41c-2.29-2.53-6-8.2-.92-13.89h23.6a6.95,6.95,0,0,0,0-13.89h-97.24a6.95,6.95,0,0,0,0,13.89h45.47c1.48,1.71,5.56,7.45.42,13.89h-12.16a6.95,6.95,0,0,0,0,13.89h97.24a6.95,6.95,0,0,0,0-13.89Z"/><g class="cls-3"><path class="cls-4" d="M354.78,1529.6l-4.53-12.26L338,1512.82l12.26-4.53,4.53-12.26,4.53,12.26,12.26,4.53-12.26,4.53Zm-9.9-16.78,7.23,2.67,2.67,7.23,2.67-7.23,7.23-2.67-7.23-2.67-2.67-7.23-2.67,7.23Z"/><path class="cls-4" d="M382.73,1541.52l-3-8.23-8.23-3,8.23-3,3-8.23,3,8.23,8.23,3-8.23,3Zm-4.39-11.27,3.2,1.18,1.18,3.2,1.18-3.2,3.2-1.18-3.2-1.18-1.18-3.2-1.18,3.2Z"/><path class="cls-4" d="M362.45,1552l-2.16-5.85-5.86-2.16,5.86-2.16,2.16-5.85,2.16,5.85,5.86,2.16-5.86,2.16Zm-1.14-8,.83.31.31.83.31-.83.83-.31-.83-.31-.31-.83-.31.83Z"/></g><g class="cls-3"><path class="cls-4" d="M316.78,558.6l-4.53-12.26L300,541.82l12.26-4.53L316.78,525l4.53,12.26,12.26,4.53-12.26,4.53Zm-9.9-16.78,7.23,2.67,2.67,7.23,2.67-7.23,7.23-2.67-7.23-2.67-2.67-7.23-2.67,7.23Z"/><path class="cls-4" d="M344.73,570.52l-3-8.23-8.23-3,8.23-3,3-8.23,3,8.23,8.23,3-8.23,3Zm-4.39-11.27,3.2,1.18,1.18,3.2,1.18-3.2,3.2-1.18-3.2-1.18-1.18-3.2-1.18,3.2Z"/><path class="cls-4" d="M324.45,581l-2.16-5.85-5.86-2.16,5.86-2.16,2.16-5.85,2.16,5.85,5.86,2.16-5.86,2.16Zm-1.14-8,.83.31.31.83.31-.83.83-.31-.83-.31-.31-.83-.31.83Z"/></g><g class="cls-3"><path class="cls-4" d="M1778.78,464.6l-4.53-12.26L1762,447.82l12.26-4.53,4.53-12.26,4.53,12.26,12.26,4.53-12.26,4.53Zm-9.9-16.78,7.23,2.67,2.67,7.23,2.67-7.23,7.23-2.67-7.23-2.67-2.67-7.23-2.67,7.23Z"/><path class="cls-4" d="M1806.73,476.52l-3-8.23-8.23-3,8.23-3,3-8.23,3,8.23,8.23,3-8.23,3Zm-4.39-11.27,3.2,1.18,1.18,3.2,1.18-3.2,3.2-1.18-3.2-1.18-1.18-3.2-1.18,3.2Z"/><path class="cls-4" d="M1786.45,487l-2.16-5.85-5.86-2.16,5.86-2.16,2.16-5.85,2.16,5.85,5.86,2.16-5.86,2.16Zm-1.14-8,.83.31.31.83.31-.83.83-.31-.83-.31-.31-.83-.31.83Z"/></g><g class="cls-3"><path class="cls-4" d="M1993.78,1473.6l-4.53-12.26-12.26-4.53,12.26-4.53,4.53-12.26,4.53,12.26,12.26,4.53-12.26,4.53Zm-9.9-16.78,7.23,2.67,2.67,7.23,2.67-7.23,7.23-2.67-7.23-2.67-2.67-7.23-2.67,7.23Z"/><path class="cls-4" d="M2021.73,1485.52l-3-8.23-8.23-3,8.23-3,3-8.23,3,8.23,8.23,3-8.23,3Zm-4.39-11.27,3.2,1.18,1.18,3.2,1.18-3.2,3.2-1.18-3.2-1.18-1.18-3.2-1.18,3.2Z"/><path class="cls-4" d="M2001.45,1496l-2.16-5.85-5.86-2.16,5.86-2.16,2.16-5.85,2.16,5.85,5.86,2.16-5.86,2.16Zm-1.14-8,.83.31.31.83.31-.83.83-.31-.83-.31-.31-.83-.31.83Z"/></g><g class="cls-3"><path class="cls-4" d="M1141.78,1516.6l-4.53-12.26-12.26-4.53,12.26-4.53,4.53-12.26,4.53,12.26,12.26,4.53-12.26,4.53Zm-9.9-16.78,7.23,2.67,2.67,7.23,2.67-7.23,7.23-2.67-7.23-2.67-2.67-7.23-2.67,7.23Z"/><path class="cls-4" d="M1169.73,1528.52l-3-8.23-8.23-3,8.23-3,3-8.23,3,8.23,8.23,3-8.23,3Zm-4.39-11.27,3.2,1.18,1.18,3.2,1.18-3.2,3.2-1.18-3.2-1.18-1.18-3.2-1.18,3.2Z"/><path class="cls-4" d="M1149.45,1539l-2.16-5.85-5.86-2.16,5.86-2.16,2.16-5.85,2.16,5.85,5.86,2.16-5.86,2.16Zm-1.14-8,.83.31.31.83.31-.83.83-.31-.83-.31-.31-.83-.31.83Z"/></g><g class="cls-3"><path class="cls-4" d="M730.78,1124.6l-4.53-12.26L714,1107.82l12.26-4.53,4.53-12.26,4.53,12.26,12.26,4.53-12.26,4.53Zm-9.9-16.78,7.23,2.67,2.67,7.23,2.67-7.23,7.23-2.67-7.23-2.67-2.67-7.23-2.67,7.23Z"/><path class="cls-4" d="M758.73,1136.52l-3-8.23-8.23-3,8.23-3,3-8.23,3,8.23,8.23,3-8.23,3Zm-4.39-11.27,3.2,1.18,1.18,3.2,1.18-3.2,3.2-1.18-3.2-1.18-1.18-3.2-1.18,3.2Z"/><path class="cls-4" d="M738.45,1147l-2.16-5.85-5.86-2.16,5.86-2.16,2.16-5.85,2.16,5.85,5.86,2.16-5.86,2.16Zm-1.14-8,.83.31.31.83.31-.83.83-.31-.83-.31-.31-.83-.31.83Z"/></g><g class="cls-3"><path class="cls-4" d="M1153.78,430.6l-4.53-12.26L1137,413.82l12.26-4.53,4.53-12.26,4.53,12.26,12.26,4.53-12.26,4.53Zm-9.9-16.78,7.23,2.67,2.67,7.23,2.67-7.23,7.23-2.67-7.23-2.67-2.67-7.23-2.67,7.23Z"/><path class="cls-4" d="M1181.73,442.52l-3-8.23-8.23-3,8.23-3,3-8.23,3,8.23,8.23,3-8.23,3Zm-4.39-11.27,3.2,1.18,1.18,3.2,1.18-3.2,3.2-1.18-3.2-1.18-1.18-3.2-1.18,3.2Z"/><path class="cls-4" d="M1161.45,453l-2.16-5.85-5.86-2.16,5.86-2.16,2.16-5.85,2.16,5.85,5.86,2.16-5.86,2.16Zm-1.14-8,.83.31.31.83.31-.83.83-.31-.83-.31-.31-.83-.31.83Z"/></g><g class="cls-3"><path class="cls-4" d="M2767.78,84.6l-4.53-12.26L2751,67.82l12.26-4.53L2767.78,51l4.53,12.26,12.26,4.53-12.26,4.53Zm-9.9-16.78,7.23,2.67,2.67,7.23,2.67-7.23,7.23-2.67-7.23-2.67-2.67-7.23-2.67,7.23Z"/><path class="cls-4" d="M2795.73,96.52l-3-8.23-8.23-3,8.23-3,3-8.23,3,8.23,8.23,3-8.23,3Zm-4.39-11.27,3.2,1.18,1.18,3.2,1.18-3.2,3.2-1.18-3.2-1.18-1.18-3.2-1.18,3.2Z"/><path class="cls-4" d="M2775.45,107l-2.16-5.85-5.86-2.16,5.86-2.16,2.16-5.85,2.16,5.85,5.86,2.16-5.86,2.16Zm-1.14-8,.83.31.31.83.31-.83.83-.31-.83-.31-.31-.83-.31.83Z"/></g><g class="cls-3"><path class="cls-4" d="M2797.78,822.6l-4.53-12.26L2781,805.82l12.26-4.53,4.53-12.26,4.53,12.26,12.26,4.53-12.26,4.53Zm-9.9-16.78,7.23,2.67,2.67,7.23,2.67-7.23,7.23-2.67-7.23-2.67-2.67-7.23-2.67,7.23Z"/><path class="cls-4" d="M2825.73,834.52l-3-8.23-8.23-3,8.23-3,3-8.23,3,8.23,8.23,3-8.23,3Zm-4.39-11.27,3.2,1.18,1.18,3.2,1.18-3.2,3.2-1.18-3.2-1.18-1.18-3.2-1.18,3.2Z"/><path class="cls-4" d="M2805.45,845l-2.16-5.85-5.86-2.16,5.86-2.16,2.16-5.85,2.16,5.85,5.86,2.16-5.86,2.16Zm-1.14-8,.83.31.31.83.31-.83.83-.31-.83-.31-.31-.83-.31.83Z"/></g><g class="cls-3"><path class="cls-4" d="M1224.78,63.6l-4.53-12.26L1208,46.82l12.26-4.53L1224.78,30l4.53,12.26,12.26,4.53-12.26,4.53Zm-9.9-16.78,7.23,2.67,2.67,7.23,2.67-7.23,7.23-2.67-7.23-2.67-2.67-7.23-2.67,7.23Z"/><path class="cls-4" d="M1252.73,75.52l-3-8.23-8.23-3,8.23-3,3-8.23,3,8.23,8.23,3-8.23,3Zm-4.39-11.27,3.2,1.18,1.18,3.2,1.18-3.2,3.2-1.18-3.2-1.18-1.18-3.2-1.18,3.2Z"/><path class="cls-4" d="M1232.45,86l-2.16-5.85-5.86-2.16,5.86-2.16,2.16-5.85,2.16,5.85,5.86,2.16-5.86,2.16Zm-1.14-8,.83.31.31.83.31-.83.83-.31-.83-.31-.31-.83-.31.83Z"/></g><g class="cls-3"><path class="cls-4" d="M56.78,58.6,52.26,46.35,40,41.82l12.26-4.53L56.78,25l4.53,12.26,12.26,4.53L61.31,46.35Zm-9.9-16.78,7.23,2.67,2.67,7.23,2.67-7.23,7.23-2.67-7.23-2.67-2.67-7.23-2.67,7.23Z"/><path class="cls-4" d="M84.73,70.52l-3-8.23-8.23-3,8.23-3,3-8.23,3,8.23,8.23,3-8.23,3ZM80.34,59.25l3.2,1.18,1.18,3.2,1.18-3.2,3.2-1.18-3.2-1.18-1.18-3.2-1.18,3.2Z"/><path class="cls-4" d="M64.45,81,62.29,75.1l-5.86-2.16,5.86-2.16,2.16-5.85,2.16,5.85,5.86,2.16L66.62,75.1Zm-1.14-8,.83.31.31.83.31-.83.83-.31-.83-.31-.31-.83-.31.83Z"/></g><g class="cls-3"><path class="cls-4" d="M1441.78,929.6l-4.53-12.26L1425,912.82l12.26-4.53,4.53-12.26,4.53,12.26,12.26,4.53-12.26,4.53Zm-9.9-16.78,7.23,2.67,2.67,7.23,2.67-7.23,7.23-2.67-7.23-2.67-2.67-7.23-2.67,7.23Z"/><path class="cls-4" d="M1469.73,941.52l-3-8.23-8.23-3,8.23-3,3-8.23,3,8.23,8.23,3-8.23,3Zm-4.39-11.27,3.2,1.18,1.18,3.2,1.18-3.2,3.2-1.18-3.2-1.18-1.18-3.2-1.18,3.2Z"/><path class="cls-4" d="M1449.45,952l-2.16-5.85-5.86-2.16,5.86-2.16,2.16-5.85,2.16,5.85,5.86,2.16-5.86,2.16Zm-1.14-8,.83.31.31.83.31-.83.83-.31-.83-.31-.31-.83-.31.83Z"/></g><g class="cls-3"><path class="cls-4" d="M2173.78,707.6l-4.53-12.26L2157,690.82l12.26-4.53,4.53-12.26,4.53,12.26,12.26,4.53-12.26,4.53Zm-9.9-16.78,7.23,2.67,2.67,7.23,2.67-7.23,7.23-2.67-7.23-2.67-2.67-7.23-2.67,7.23Z"/><path class="cls-4" d="M2201.73,719.52l-3-8.23-8.23-3,8.23-3,3-8.23,3,8.23,8.23,3-8.23,3Zm-4.39-11.27,3.2,1.18,1.18,3.2,1.18-3.2,3.2-1.18-3.2-1.18-1.18-3.2-1.18,3.2Z"/><path class="cls-4" d="M2181.45,730l-2.16-5.85-5.86-2.16,5.86-2.16,2.16-5.85,2.16,5.85,5.86,2.16-5.86,2.16Zm-1.14-8,.83.31.31.83.31-.83.83-.31-.83-.31-.31-.83-.31.83Z"/></g><g class="cls-3"><path class="cls-4" d="M2812.78,1432.6l-4.53-12.26-12.26-4.53,12.26-4.53,4.53-12.26,4.53,12.26,12.26,4.53-12.26,4.53Zm-9.9-16.78,7.23,2.67,2.67,7.23,2.67-7.23,7.23-2.67-7.23-2.67-2.67-7.23-2.67,7.23Z"/><path class="cls-4" d="M2840.73,1444.52l-3-8.23-8.23-3,8.23-3,3-8.23,3,8.23,8.23,3-8.23,3Zm-4.39-11.27,3.2,1.18,1.18,3.2,1.18-3.2,3.2-1.18-3.2-1.18-1.18-3.2-1.18,3.2Z"/><path class="cls-4" d="M2820.45,1455l-2.16-5.85-5.86-2.16,5.86-2.16,2.16-5.85,2.16,5.85,5.86,2.16-5.86,2.16Zm-1.14-8,.83.31.31.83.31-.83.83-.31-.83-.31-.31-.83-.31.83Z"/></g><g class="cls-3"><path class="cls-4" d="M2592.78,1769.6l-4.53-12.26-12.26-4.53,12.26-4.53,4.53-12.26,4.53,12.26,12.26,4.53-12.26,4.53Zm-9.9-16.78,7.23,2.67,2.67,7.23,2.67-7.23,7.23-2.67-7.23-2.67-2.67-7.23-2.67,7.23Z"/><path class="cls-4" d="M2620.73,1781.52l-3-8.23-8.23-3,8.23-3,3-8.23,3,8.23,8.23,3-8.23,3Zm-4.39-11.27,3.2,1.18,1.18,3.2,1.18-3.2,3.2-1.18-3.2-1.18-1.18-3.2-1.18,3.2Z"/><path class="cls-4" d="M2600.45,1792l-2.16-5.85-5.86-2.16,5.86-2.16,2.16-5.85,2.16,5.85,5.86,2.16-5.86,2.16Zm-1.14-8,.83.31.31.83.31-.83.83-.31-.83-.31-.31-.83-.31.83Z"/></g><g class="cls-3"><path class="cls-4" d="M213.78,1057.6l-4.53-12.26L197,1040.82l12.26-4.53,4.53-12.26,4.53,12.26,12.26,4.53-12.26,4.53Zm-9.9-16.78,7.23,2.67,2.67,7.23,2.67-7.23,7.23-2.67-7.23-2.67-2.67-7.23-2.67,7.23Z"/><path class="cls-4" d="M241.73,1069.52l-3-8.23-8.23-3,8.23-3,3-8.23,3,8.23,8.23,3-8.23,3Zm-4.39-11.27,3.2,1.18,1.18,3.2,1.18-3.2,3.2-1.18-3.2-1.18-1.18-3.2-1.18,3.2Z"/><path class="cls-4" d="M221.45,1080l-2.16-5.85-5.86-2.16,5.86-2.16,2.16-5.85,2.16,5.85,5.86,2.16-5.86,2.16Zm-1.14-8,.83.31.31.83.31-.83.83-.31-.83-.31-.31-.83-.31.83Z"/></g></g></g></svg>